<svg width="19" height="23" viewBox="0 0 19 23" fill="none" xmlns="http://www.w3.org/2000/svg">
<path d="M0.56665 19.3169V17.0835H2.79999V9.26685C2.79999 7.72212 3.26527 6.3542 4.19582 5.16309C5.12638 3.95336 6.33611 3.16239 7.825 2.79017V2.0085C7.825 1.54322 7.98319 1.15239 8.29958 0.835996C8.63458 0.500996 9.03472 0.333496 9.5 0.333496C9.96528 0.333496 10.3561 0.500996 10.6725 0.835996C11.0075 1.15239 11.175 1.54322 11.175 2.0085V2.79017C12.6639 3.16239 13.8736 3.95336 14.8042 5.16309C15.7347 6.3542 16.2 7.72212 16.2 9.26685V17.0835H18.4333V19.3169H0.56665ZM9.5 22.6669C8.88583 22.6669 8.35542 22.4528 7.90875 22.0248C7.48069 21.5781 7.26666 21.0477 7.26666 20.4335H11.7333C11.7333 21.0477 11.51 21.5781 11.0633 22.0248C10.6353 22.4528 10.1142 22.6669 9.5 22.6669ZM5.03333 17.0835H13.9667V9.26685C13.9667 8.03851 13.5293 6.98698 12.6546 6.11226C11.7799 5.23753 10.7283 4.80017 9.5 4.80017C8.27167 4.80017 7.22014 5.23753 6.34541 6.11226C5.47069 6.98698 5.03333 8.03851 5.03333 9.26685V17.0835Z" fill="currentColor"/>
</svg>
