<svg width="24" height="24" viewBox="0 0 24 24" fill="none" xmlns="http://www.w3.org/2000/svg">
<path fill-rule="evenodd" clip-rule="evenodd" d="M3 6.31601V17.684C3.00204 18.3006 3.24028 18.8911 3.66228 19.3254C4.08427 19.7598 4.65543 20.0025 5.25 20H18.75C19.3446 20.0025 19.9157 19.7598 20.3377 19.3254C20.7597 18.8911 20.998 18.3006 21 17.684V6.31601C20.998 5.69942 20.7597 5.10894 20.3377 4.67457C19.9157 4.24019 19.3446 3.99754 18.75 4.00002H5.25C4.65543 3.99754 4.08427 4.24019 3.66228 4.67457C3.24028 5.10894 3.00204 5.69942 3 6.31601Z" stroke="#7D8A95" stroke-width="2" stroke-linecap="round" stroke-linejoin="round"/>
<path d="M21 10.5466C21.5523 10.5466 22 10.0989 22 9.5466C22 8.99432 21.5523 8.5466 21 8.5466V10.5466ZM2.99988 8.5466C2.44759 8.5466 1.99988 8.99432 1.99988 9.5466C1.99988 10.0989 2.44759 10.5466 2.99988 10.5466V8.5466ZM13.1249 14.5054C13.6772 14.5054 14.1249 14.0577 14.1249 13.5054C14.1249 12.9531 13.6772 12.5054 13.1249 12.5054V14.5054ZM2.99988 12.5054C2.44759 12.5054 1.99988 12.9531 1.99988 13.5054C1.99988 14.0577 2.44759 14.5054 2.99988 14.5054V12.5054ZM17.625 14.5054C18.1773 14.5054 18.625 14.0577 18.625 13.5054C18.625 12.9531 18.1773 12.5054 17.625 12.5054V14.5054ZM16.5 12.5054C15.9477 12.5054 15.5 12.9531 15.5 13.5054C15.5 14.0577 15.9477 14.5054 16.5 14.5054V12.5054ZM21 8.5466H2.99988V10.5466H21V8.5466ZM13.1249 12.5054H2.99988V14.5054H13.1249V12.5054ZM17.625 12.5054H16.5V14.5054H17.625V12.5054Z" fill="#7D8A95"/>
</svg>
