<svg width="28" height="28" viewBox="0 0 28 28" fill="none" xmlns="http://www.w3.org/2000/svg">
<path fill-rule="evenodd" clip-rule="evenodd" d="M5.83337 14C5.83323 17.0485 7.53101 19.8433 10.2365 21.2482C12.942 22.653 16.2047 22.4341 18.6982 20.6803L22.1667 21V14C22.1667 9.48968 18.5104 5.83334 14 5.83334C9.48972 5.83334 5.83337 9.48968 5.83337 14Z" stroke="#33384B" stroke-width="2" stroke-linecap="round" stroke-linejoin="round"/>
<path d="M10.5 15.3333C9.94772 15.3333 9.5 15.7811 9.5 16.3333C9.5 16.8856 9.94772 17.3333 10.5 17.3333V15.3333ZM15.1667 17.3333C15.719 17.3333 16.1667 16.8856 16.1667 16.3333C16.1667 15.7811 15.719 15.3333 15.1667 15.3333V17.3333ZM10.5 11.8333C9.94772 11.8333 9.5 12.2811 9.5 12.8333C9.5 13.3856 9.94772 13.8333 10.5 13.8333V11.8333ZM17.5 13.8333C18.0523 13.8333 18.5 13.3856 18.5 12.8333C18.5 12.2811 18.0523 11.8333 17.5 11.8333V13.8333ZM10.5 17.3333H15.1667V15.3333H10.5V17.3333ZM10.5 13.8333H17.5V11.8333H10.5V13.8333Z" fill="#33384B"/>
</svg>
