<svg width="24" height="18" viewBox="0 0 24 18" fill="none" xmlns="http://www.w3.org/2000/svg">
<path d="M23.1814 14.7144C23.1791 14.6896 23.1743 14.6653 23.1672 14.6421C23.1067 14.1905 22.8774 13.8007 22.5475 13.5309C22.9236 13.2161 23.1632 12.7437 23.1632 12.2161C23.1632 11.4066 22.5989 10.7278 21.8436 10.5486V5.14128L22.9019 4.76729C23.0598 4.7116 23.1653 4.56249 23.1659 4.39516C23.1664 4.22783 23.0616 4.07818 22.9043 4.02144L11.8141 0.02349C11.7278 -0.00765325 11.6331 -0.00791753 11.5463 0.0232257L0.375076 4.02117C0.217249 4.07765 0.112206 4.22756 0.112734 4.39516C0.113262 4.56275 0.21936 4.71187 0.377715 4.76756L4.41789 6.18431L4.97926 13.0833C5.00433 14.6479 8.34194 15.4663 11.6392 15.4663C14.9348 15.4663 18.2711 14.6487 18.2988 13.0854L18.9293 6.17059L21.0521 5.42104V10.5489C20.2965 10.7283 19.7322 11.4069 19.7322 12.2163C19.7322 12.7439 19.9718 13.2163 20.3479 13.5312C20.0183 13.8007 19.7892 14.1897 19.7282 14.6408C19.7214 14.6645 19.7163 14.6893 19.7137 14.7147L19.4701 17.1507C19.4588 17.2621 19.4954 17.3729 19.5704 17.4558C19.6454 17.5387 19.752 17.5862 19.8639 17.5862H23.0313C23.1432 17.5862 23.2498 17.5389 23.3247 17.4558C23.3997 17.3729 23.4364 17.2621 23.425 17.1507L23.1814 14.7144ZM11.6793 0.816587L21.5923 4.39014L11.6793 7.89138L1.69418 4.39014L11.6793 0.816587ZM17.5089 13.0295C17.5078 13.0414 17.5073 13.0535 17.5073 13.0654C17.5073 13.7215 15.2214 14.6745 11.6392 14.6745C8.0569 14.6745 5.77077 13.7215 5.77077 13.0654C5.77077 13.0546 5.77025 13.044 5.76946 13.0332L5.2358 6.47093L11.5492 8.68474C11.5914 8.69952 11.6357 8.70691 11.6801 8.70691C11.7247 8.70691 11.7693 8.69952 11.812 8.68448L18.1082 6.46064L17.5089 13.0295ZM20.524 12.2161C20.524 11.7067 20.9383 11.2923 21.448 11.2923C21.9573 11.2923 22.3717 11.7067 22.3717 12.2161C22.3717 12.7254 21.9573 13.1398 21.448 13.1398C20.9383 13.1398 20.524 12.7254 20.524 12.2161ZM20.3015 16.7941L20.4947 14.8622C20.501 14.839 20.5058 14.8147 20.5081 14.7896C20.5525 14.3006 20.9563 13.9319 21.448 13.9319C21.9391 13.9319 22.3432 14.3006 22.3873 14.7896C22.3897 14.8142 22.3939 14.8382 22.4007 14.8611L22.5942 16.7944L20.3015 16.7941Z" fill="#2A88F1"/>
</svg>
