<svg width="28" height="28" viewBox="0 0 28 28" fill="none" xmlns="http://www.w3.org/2000/svg">
<path d="M11.7081 5.87478L12.0857 6.25244C12.1123 6.27899 12.1256 6.29227 12.1369 6.30336C13.173 7.31499 14.827 7.31499 15.863 6.30336C15.8743 6.29227 15.8876 6.279 15.9142 6.25246L15.9142 6.25244L16.2918 5.87478C17.0654 5.10123 18.1145 4.66666 19.2085 4.66666C21.4866 4.66666 23.3333 6.51339 23.3333 8.79144V11.1834C23.3333 12.2398 22.9136 13.253 22.1666 14C21.4196 14.747 21 15.7601 21 16.8166V22.3369C21 23.5315 20.0315 24.5 18.8368 24.5C18.0175 24.5 17.2685 24.0371 16.9021 23.3042L15.5652 20.6305L15.5652 20.6305C15.2473 19.9946 15.0883 19.6767 14.9196 19.516C14.4047 19.0254 13.5953 19.0254 13.0803 19.516C12.9116 19.6767 12.7526 19.9947 12.4347 20.6305L11.0978 23.3042C10.7314 24.0371 9.98241 24.5 9.16308 24.5C7.96842 24.5 6.99996 23.5315 6.99996 22.3369V16.8166C6.99996 15.7601 6.5803 14.747 5.83329 14C5.08629 13.253 4.66663 12.2398 4.66663 11.1834V8.79145C4.66663 6.51339 6.51336 4.66666 8.79142 4.66666C9.88538 4.66666 10.9345 5.10123 11.7081 5.87478Z" stroke="#33384B" stroke-width="2" stroke-linecap="round" stroke-linejoin="round"/>
<circle cx="14" cy="12.8333" r="1.16667" fill="#33384B"/>
<circle cx="9.33329" cy="10.5" r="1.16667" fill="#33384B"/>
<circle cx="18.6667" cy="10.5" r="1.16667" fill="#33384B"/>
</svg>
