<svg width="49" height="49" viewBox="0 0 49 49" fill="none" xmlns="http://www.w3.org/2000/svg">
<g clip-path="url(#clip0_2755_3098)">
<path d="M12.2493 47.7564V36.9428C12.2493 35.5503 12.6334 34.1848 13.3593 32.9966C14.0852 31.8083 15.1248 30.8433 16.3638 30.2077L23.9355 26.3233C25.0046 25.7748 26.189 25.4888 27.3907 25.4888H33.359C34.5606 25.4888 35.745 25.7748 36.8141 26.3233L44.3859 30.2077C45.6248 30.8433 46.6644 31.8083 47.3903 32.9966C48.1162 34.1849 48.5003 35.5503 48.5003 36.9428V47.7564C48.5003 48.0074 48.4006 48.248 48.2231 48.4255C48.0457 48.6029 47.805 48.7026 47.5541 48.7026H13.1955C12.9445 48.7026 12.7039 48.6029 12.5264 48.4255C12.349 48.248 12.2493 48.0074 12.2493 47.7564Z" fill="#2A88F1"/>
<path d="M23.9356 26.3233C25.0047 25.7748 26.1891 25.4888 27.3907 25.4888H33.359C34.5607 25.4888 35.7451 25.7748 36.8142 26.3233L30.3749 48.1807L23.9356 26.3233Z" fill="#A4AED3"/>
<path d="M25.5625 21.0867H35.1875V28.7457H25.5625V21.0867Z" fill="#F9BEAC"/>
<path d="M25.5625 23.7479C25.9764 24.2175 26.4418 24.6391 26.9499 25.0047C27.9752 25.7419 29.2061 26.1385 30.4689 26.1385H31.6836C32.9401 26.1384 34.1652 25.7456 35.1875 25.015V21.0867H25.5626L25.5625 23.7479Z" fill="#E58A7B"/>
<path d="M18.275 48.7026C18.1871 48.7026 18.1029 48.6677 18.0408 48.6056C17.9787 48.5435 17.9438 48.4592 17.9438 48.3714V41.4476C17.9438 41.3598 17.9787 41.2756 18.0408 41.2135C18.1029 41.1513 18.1871 41.1165 18.275 41.1165C18.3628 41.1165 18.447 41.1513 18.5091 41.2135C18.5713 41.2756 18.6061 41.3598 18.6061 41.4476V48.3715C18.6061 48.4593 18.5713 48.5436 18.5091 48.6057C18.447 48.6678 18.3628 48.7027 18.275 48.7027V48.7026ZM42.4752 48.7026C42.3873 48.7026 42.3031 48.6677 42.241 48.6056C42.1789 48.5435 42.144 48.4592 42.144 48.3714V41.4476C42.144 41.3598 42.1789 41.2756 42.241 41.2135C42.3031 41.1513 42.3873 41.1165 42.4752 41.1165C42.563 41.1165 42.6472 41.1513 42.7093 41.2135C42.7714 41.2756 42.8063 41.3598 42.8063 41.4476V48.3715C42.8063 48.4593 42.7714 48.5436 42.7093 48.6057C42.6472 48.6678 42.563 48.7027 42.4752 48.7027V48.7026Z" fill="#EAEAEA"/>
<path d="M28.1253 44.3974L29.0506 30.1997H31.7946L32.6253 44.3974L30.3753 48.3714L28.1253 44.3974Z" fill="#F96263"/>
<path d="M32.7836 30.8666L30.9841 32.6661C30.9041 32.7461 30.8091 32.8096 30.7046 32.8529C30.6001 32.8962 30.4881 32.9185 30.3749 32.9185C30.2618 32.9185 30.1498 32.8962 30.0453 32.8529C29.9407 32.8096 29.8458 32.7461 29.7658 32.6661L27.9663 30.8666L30.3749 28.7456L32.7836 30.8666Z" fill="#D34342"/>
<path d="M35.1874 25.4888L30.3748 28.7456L32.6163 31.1523C32.764 31.3109 32.9461 31.4335 33.1486 31.5109C33.351 31.5882 33.5685 31.6181 33.7843 31.5984C34.0001 31.5786 34.2086 31.5097 34.3936 31.3969C34.5787 31.2841 34.7355 31.1304 34.8519 30.9476L36.2311 26.7039L35.1874 25.4888ZM25.5623 25.4888L30.3748 28.7456L28.1334 31.1523C27.9857 31.3109 27.8036 31.4335 27.6011 31.5109C27.3987 31.5882 27.1812 31.6181 26.9654 31.5984C26.7495 31.5786 26.5411 31.5097 26.3561 31.3969C26.171 31.2841 26.0142 31.1304 25.8978 30.9476L24.5186 26.7039L25.5623 25.4888Z" fill="#596381"/>
<path d="M38.0185 16.5236V16.6797C38.0185 18.0056 37.703 19.3124 37.0982 20.4923C36.4933 21.6722 35.6164 22.6912 34.5399 23.4652C33.5147 24.2024 32.2838 24.5989 31.021 24.5989H29.8063C28.5435 24.5989 27.3126 24.2024 26.2873 23.4652C25.2108 22.6912 24.3339 21.6722 23.7291 20.4923C23.1242 19.3124 22.8088 18.0056 22.8088 16.6797V14.8221L23.4711 13.918L22.8088 12.0662L26.517 7.62549L38.0185 10.2273L37.3561 12.4156L38.0185 14.8221V16.5236Z" fill="#F9BEAC"/>
<path d="M30.4139 21.1327C29.8995 21.132 29.3916 21.0177 28.9264 20.798C28.8481 20.7598 28.788 20.6922 28.7591 20.6099C28.7303 20.5276 28.7351 20.4373 28.7724 20.3585C28.8098 20.2798 28.8767 20.2189 28.9586 20.1891C29.0405 20.1594 29.1309 20.1631 29.2101 20.1995C29.5863 20.3779 29.9974 20.4704 30.4138 20.4704C30.8301 20.4704 31.2412 20.3779 31.6174 20.1995C31.6568 20.1801 31.6997 20.1687 31.7436 20.166C31.7874 20.1633 31.8314 20.1693 31.8729 20.1838C31.9143 20.1982 31.9526 20.2207 31.9852 20.2501C32.0179 20.2795 32.0445 20.315 32.0633 20.3547C32.0821 20.3944 32.0928 20.4375 32.0948 20.4813C32.0968 20.5252 32.0901 20.5691 32.075 20.6103C32.0599 20.6516 32.0367 20.6894 32.0069 20.7217C31.977 20.7539 31.941 20.7798 31.901 20.798C31.4392 21.0161 30.9351 21.1303 30.4244 21.1327H30.4139ZM31.6158 16.8523V17.4384C31.6158 17.7571 31.4892 18.0627 31.2638 18.2881C31.0385 18.5135 30.7329 18.6401 30.4142 18.6401H30.4135C30.0948 18.6401 29.7891 18.5135 29.5637 18.2881C29.3384 18.0628 29.2117 17.7571 29.2117 17.4384V16.8523C29.2117 16.8021 29.2317 16.754 29.2671 16.7185C29.3026 16.683 29.3508 16.6631 29.401 16.6631H31.4266C31.4768 16.6631 31.5249 16.683 31.5604 16.7185C31.5959 16.754 31.6158 16.8021 31.6158 16.8523Z" fill="#E58A7B"/>
<path d="M32.2485 48.7026L39.6067 34.0038C39.6512 33.915 39.6666 33.8144 39.6507 33.7163C39.6349 33.6182 39.5885 33.5276 39.5183 33.4573L38.0855 32.0245C38.0312 31.9703 37.991 31.9037 37.9682 31.8305C37.9454 31.7572 37.9408 31.6796 37.9547 31.6041C37.9686 31.5287 38.0007 31.4578 38.0481 31.3975C38.0955 31.3372 38.1568 31.2894 38.2268 31.2581L39.9172 30.502C39.9801 30.4738 40.0362 30.4322 40.0813 30.3802C40.1265 30.3281 40.1598 30.2668 40.1788 30.2005C40.1978 30.1342 40.2021 30.0646 40.1913 29.9965C40.1806 29.9284 40.1551 29.8634 40.1167 29.8062L38.2829 27.0768L35.1875 25.4888L30.3054 48.7027L32.2485 48.7026Z" fill="white"/>
<path d="M28.4733 48.7026L21.1443 34.0043C21.0995 33.9153 21.0838 33.8146 21.0996 33.7162C21.1154 33.6179 21.1618 33.5271 21.2322 33.4567L22.6644 32.0245C22.7186 31.9703 22.7589 31.9037 22.7816 31.8305C22.8044 31.7572 22.809 31.6796 22.7951 31.6041C22.7812 31.5287 22.7492 31.4578 22.7018 31.3975C22.6544 31.3372 22.593 31.2894 22.523 31.2581L20.8755 30.5211C20.8097 30.4916 20.7515 30.4476 20.7054 30.3922C20.6592 30.3369 20.6263 30.2717 20.6092 30.2017C20.592 30.1317 20.5911 30.0587 20.6065 29.9883C20.6219 29.9179 20.6531 29.8519 20.6979 29.7954L23.116 26.7437L25.5623 25.4888L30.4445 48.7027L28.4733 48.7026Z" fill="white"/>
<path d="M24.3202 5.16162C23.9193 5.16162 23.5349 5.32085 23.2514 5.60429C22.968 5.88773 22.8088 6.27216 22.8088 6.673V14.8221H23.5746C23.648 14.8221 23.7207 14.8077 23.7885 14.7796C23.8563 14.7515 23.9179 14.7103 23.9698 14.6584C24.0217 14.6065 24.0628 14.5449 24.0909 14.4771C24.119 14.4093 24.1335 14.3367 24.1335 14.2633V11.9323C24.1335 11.751 24.1752 11.5721 24.2553 11.4095C24.3354 11.2468 24.4517 11.1047 24.5954 10.9941C25.1155 10.5936 25.5507 10.0936 25.8758 9.52324C26.2008 8.9529 26.4092 8.32362 26.4888 7.672L26.7953 5.16162H24.3202Z" fill="#38424F"/>
<path d="M40.6516 28.3051C41.5992 29.3724 42.8103 31.1551 43.2005 33.5884C43.3593 34.5853 43.3677 35.6004 43.2255 36.5999C43.2194 36.6429 43.2219 36.6868 43.2328 36.7289C43.2437 36.771 43.2627 36.8106 43.2889 36.8453C43.3151 36.88 43.3478 36.9093 43.3853 36.9314C43.4228 36.9535 43.4642 36.9679 43.5073 36.974C43.5504 36.9801 43.5942 36.9776 43.6363 36.9667C43.6784 36.9558 43.718 36.9368 43.7527 36.9106C43.7875 36.8844 43.8167 36.8517 43.8388 36.8142C43.8609 36.7767 43.8754 36.7353 43.8814 36.6922C44.0328 35.6273 44.0237 34.5458 43.8545 33.4835C43.5904 31.8728 42.9692 30.3416 42.0362 29.0023L40.6368 28.2844C40.642 28.2912 40.646 28.2986 40.6517 28.3051H40.6516Z" fill="#F9E000"/>
<path d="M43.6646 40.2003C44.829 40.2003 45.7729 39.2564 45.7729 38.092C45.7729 36.9276 44.829 35.9836 43.6646 35.9836C42.5002 35.9836 41.5562 36.9276 41.5562 38.092C41.5562 39.2564 42.5002 40.2003 43.6646 40.2003Z" fill="#F9E000"/>
<path d="M17.4631 35.4856C17.4733 35.4856 17.4836 35.4852 17.4939 35.4843C17.5372 35.4803 17.5793 35.4678 17.6178 35.4475C17.6563 35.4273 17.6904 35.3996 17.7182 35.3662C17.746 35.3327 17.7669 35.2941 17.7798 35.2525C17.7926 35.211 17.7972 35.1673 17.7932 35.124C17.5766 32.8083 18.1904 30.491 19.5249 28.5862L18.3818 29.1726C17.3735 31.0067 16.9387 33.1012 17.1337 35.185C17.1413 35.2672 17.1793 35.3435 17.2402 35.3991C17.3011 35.4547 17.3806 35.4855 17.4631 35.4856Z" fill="#F9E000"/>
<path d="M16.3243 41.1939C16.2471 41.1939 16.1723 41.1669 16.1129 41.1177C16.0534 41.0684 16.0131 40.9999 15.9988 40.924L15.4262 37.8846C15.3612 37.5435 15.3641 37.1929 15.4348 36.8529C15.5055 36.5128 15.6425 36.1901 15.8381 35.9031C16.0336 35.6161 16.2839 35.3705 16.5745 35.1804C16.8651 34.9902 17.1903 34.8593 17.5316 34.795C17.8729 34.7307 18.2235 34.7343 18.5634 34.8057C18.9032 34.8771 19.2257 35.0148 19.5122 35.211C19.7988 35.4071 20.0439 35.6579 20.2334 35.9489C20.423 36.2399 20.5533 36.5654 20.6168 36.9068L21.1895 39.9461C21.2057 40.0324 21.187 40.1217 21.1375 40.1942C21.0879 40.2667 21.0116 40.3166 20.9253 40.3328L19.9055 40.525C19.8627 40.5331 19.8188 40.5326 19.7763 40.5237C19.7337 40.5148 19.6933 40.4976 19.6574 40.4731C19.6215 40.4485 19.5907 40.4172 19.567 40.3808C19.5432 40.3444 19.5268 40.3036 19.5187 40.2609C19.5107 40.2182 19.5111 40.1742 19.52 40.1317C19.5289 40.0891 19.5462 40.0487 19.5707 40.0128C19.5952 39.9769 19.6266 39.9462 19.663 39.9224C19.6994 39.8986 19.7401 39.8822 19.7828 39.8741L20.4774 39.7434L19.9659 37.0294C19.8688 36.5137 19.5707 36.0578 19.1374 35.7618C18.704 35.4658 18.1709 35.3542 17.6552 35.4513C17.1395 35.5485 16.6835 35.8465 16.3875 36.2799C16.0916 36.7132 15.9799 37.2464 16.077 37.7621L16.5884 40.476L17.2829 40.3451C17.3692 40.3289 17.4584 40.3476 17.531 40.3971C17.6035 40.4467 17.6534 40.523 17.6696 40.6093C17.6859 40.6956 17.6672 40.7848 17.6177 40.8574C17.5681 40.9299 17.4918 40.9798 17.4055 40.996L16.3855 41.1881C16.3653 41.1919 16.3448 41.1939 16.3243 41.1939ZM38.019 4.93429C38.019 4.36352 37.9066 3.79834 37.6882 3.27101C37.4698 2.74368 37.1497 2.26454 36.7461 1.86093C36.3425 1.45733 35.8634 1.13717 35.3361 0.918745C34.8087 0.700315 34.2436 0.587891 33.6728 0.587891H22.5104C22.4222 0.587883 22.3352 0.608661 22.2565 0.648539C22.1779 0.688418 22.1097 0.746275 22.0575 0.81742C22.0054 0.888565 21.9708 0.970996 21.9564 1.05803C21.9421 1.14506 21.9485 1.23425 21.975 1.31836L22.8122 3.96945C23.3258 5.59605 24.3445 7.01664 25.7203 8.025C27.0961 9.03336 28.7575 9.57701 30.4633 9.57705H33.5656C34.5178 9.57706 35.4453 9.88041 36.2135 10.4431C36.3628 10.5532 36.4839 10.6969 36.5673 10.8626C36.6506 11.0282 36.6938 11.2112 36.6933 11.3966V14.2633C36.6933 14.3367 36.7077 14.4094 36.7358 14.4772C36.7639 14.545 36.8051 14.6066 36.857 14.6585C36.9089 14.7104 36.9705 14.7516 37.0383 14.7796C37.1061 14.8077 37.1788 14.8222 37.2522 14.8222H38.0181V12.4144L38.019 12.4157V4.93429Z" fill="#343C4A"/>
<path d="M38.0187 16.1122V12.228H38.5609C39.0041 12.228 39.4291 12.4041 39.7425 12.7175C40.0558 13.0308 40.2319 13.4559 40.2319 13.899C40.2319 14.486 39.9987 15.0489 39.5837 15.464C39.1686 15.879 38.6057 16.1122 38.0187 16.1122ZM22.8091 16.1122C22.5185 16.1122 22.2307 16.055 21.9621 15.9437C21.6936 15.8325 21.4497 15.6695 21.2441 15.464C21.0386 15.2585 20.8756 15.0145 20.7644 14.746C20.6532 14.4775 20.5959 14.1897 20.5959 13.899C20.5959 13.4559 20.772 13.0308 21.0853 12.7175C21.3987 12.4041 21.8237 12.228 22.2669 12.228H22.8091V16.1122Z" fill="#E58A7B"/>
<path d="M34.8181 12.9254C34.775 12.9253 34.7324 12.9169 34.6926 12.9005C34.3613 12.7649 34.0056 12.6992 33.6477 12.7076C33.3337 12.7155 33.0239 12.7809 32.7335 12.9005C32.6932 12.917 32.6501 12.9254 32.6066 12.9252C32.5631 12.9251 32.5201 12.9164 32.48 12.8996C32.4399 12.8828 32.4034 12.8583 32.3728 12.8274C32.3421 12.7966 32.3178 12.76 32.3013 12.7197C32.2848 12.6795 32.2764 12.6364 32.2766 12.5929C32.2767 12.5494 32.2854 12.5064 32.3022 12.4662C32.319 12.4261 32.3435 12.3897 32.3744 12.359C32.4052 12.3284 32.4418 12.3041 32.4821 12.2876C33.2706 11.9634 34.1553 11.9634 34.9438 12.2876C35.0149 12.3167 35.0737 12.3695 35.1101 12.4371C35.1465 12.5047 35.1583 12.5829 35.1435 12.6583C35.1286 12.7336 35.088 12.8014 35.0287 12.8502C34.9693 12.8989 34.8949 12.9255 34.8181 12.9254ZM33.713 14.6008C33.6252 14.6008 33.5409 14.5659 33.4788 14.5038C33.4167 14.4417 33.3818 14.3575 33.3818 14.2696V13.5663C33.3818 13.4785 33.4167 13.3942 33.4788 13.3321C33.5409 13.27 33.6252 13.2351 33.713 13.2351C33.8008 13.2351 33.8851 13.27 33.9472 13.3321C34.0093 13.3942 34.0442 13.4785 34.0442 13.5663V14.2696C34.0442 14.3575 34.0093 14.4417 33.9472 14.5038C33.8851 14.5659 33.8008 14.6008 33.713 14.6008ZM28.22 12.9254C28.1769 12.9253 28.1343 12.9169 28.0945 12.9005C27.467 12.6423 26.7629 12.6423 26.1354 12.9005C26.0951 12.917 26.052 12.9254 26.0085 12.9252C25.9651 12.9251 25.922 12.9164 25.8819 12.8996C25.8418 12.8828 25.8053 12.8583 25.7747 12.8274C25.744 12.7966 25.7198 12.76 25.7032 12.7197C25.6867 12.6795 25.6783 12.6364 25.6785 12.5929C25.6786 12.5494 25.6873 12.5064 25.7041 12.4662C25.7209 12.4261 25.7454 12.3897 25.7763 12.359C25.8071 12.3284 25.8437 12.3041 25.884 12.2876C26.6725 11.9634 27.5572 11.9634 28.3457 12.2876C28.4168 12.3167 28.4756 12.3695 28.512 12.4371C28.5484 12.5047 28.5602 12.5829 28.5454 12.6583C28.5305 12.7336 28.4899 12.8014 28.4306 12.8502C28.3712 12.8989 28.2968 12.9255 28.22 12.9254ZM27.1148 14.6008C27.027 14.6008 26.9427 14.5659 26.8806 14.5038C26.8185 14.4417 26.7836 14.3575 26.7836 14.2696V13.5663C26.7836 13.4785 26.8185 13.3942 26.8806 13.3321C26.9427 13.27 27.027 13.2351 27.1148 13.2351C27.2026 13.2351 27.2869 13.27 27.349 13.3321C27.4111 13.3942 27.446 13.4785 27.446 13.5663V14.2696C27.446 14.3575 27.4111 14.4417 27.349 14.5038C27.2869 14.5659 27.2026 14.6008 27.1148 14.6008Z" fill="#343C4A"/>
</g>
<defs>
<clipPath id="clip0_2755_3098">
<rect width="48.4458" height="48.4458" fill="white" transform="translate(0.0541992 0.256836)"/>
</clipPath>
</defs>
</svg>
