<svg width="25" height="24" viewBox="0 0 25 24" fill="none" xmlns="http://www.w3.org/2000/svg">
<path d="M12.3296 23.398C11.0082 23.419 9.67353 23.3149 8.36572 23.1211L3.64097 22.1777C2.37939 21.8609 2.23892 21.5911 2.04165 20.3958L1.89781 19.4293C1.58333 16.9554 3.1227 15.1595 5.16964 14.0622L8.17465 12.6051C8.2685 12.558 8.37022 12.524 8.46214 12.4754C8.65433 12.3738 8.77334 12.078 9.00223 12.0554L8.38784 11.1092C8.25556 10.8956 8.14236 10.6668 8.00286 10.4585C7.91895 10.3333 7.7929 10.2289 7.69494 10.1134C7.11655 9.43141 6.64151 8.28555 7.01051 7.41602C7.13778 7.11616 7.32509 6.88886 7.63039 6.7645L7.45569 5.44061L7.35551 3.98266L7.34501 2.84667C7.34511 2.78305 7.34042 2.71136 7.36269 2.65081L7.36831 2.63669C7.46755 2.36958 7.8852 2.10254 8.10575 1.94411C9.20328 1.15574 10.6969 0.569271 12.0705 0.561096C13.6764 0.571371 15.4625 1.20619 16.6571 2.27895C16.8654 2.46601 16.9961 2.54868 16.9967 2.83757L16.9965 3.11608C16.9937 4.08631 16.9365 5.05642 16.7844 6.01548C16.7597 6.17134 16.6337 6.70516 16.7639 6.78859C17.5055 7.26391 17.546 8.09514 17.3097 8.8623C17.2253 9.13595 16.5549 10.6389 16.1833 10.4985C16.1642 10.4913 16.1612 10.489 16.1396 10.4891L16.1485 10.5058C16.2913 10.7544 15.5201 11.7843 15.3379 12.0023L15.3231 12.0198C15.7068 12.2644 15.8581 12.514 16.3122 12.6988L17.5231 13.2676C18.7411 13.825 19.9764 14.3822 20.9474 15.3307C21.8618 16.2239 22.4368 17.4578 22.4506 18.7449C22.4573 19.3741 22.3617 19.9634 22.2571 20.5828C22.0714 21.6825 21.8833 21.8738 20.7021 22.1599L19.4048 22.441C18.1324 22.722 16.8561 23.041 15.5607 23.1972L13.2998 23.388L12.3296 23.398ZM11.9813 1.29232C10.7207 1.35997 9.37981 1.87644 8.38123 2.65676C8.30234 2.71842 8.12506 2.83063 8.07284 2.9066L8.19036 5.37358C8.72417 5.03345 9.34564 4.9637 9.96734 4.92395L12.4263 4.88481C13.2342 4.88439 15.4026 4.79191 16.0562 5.34044C16.073 5.35459 16.1183 5.40611 16.1362 5.40775L16.2692 2.97255C16.2787 2.78106 15.7468 2.47882 15.5845 2.37889C14.686 1.82599 13.3704 1.29946 12.2854 1.28945L11.9813 1.29232ZM11.0642 5.61508L10.623 5.64081C10.0176 5.6597 9.40948 5.68136 8.82983 5.87763C8.60131 5.95502 8.53133 5.99898 8.48253 6.24166C8.42492 6.52834 8.44058 7.07233 8.3465 7.30323C8.19706 7.66998 7.57423 7.15023 7.63883 8.12669C7.66475 8.51852 7.82605 8.95773 8.01659 9.30513C8.1245 9.50191 8.32812 9.63869 8.459 9.82455C8.61017 10.0392 8.72553 10.2817 8.86555 10.5045C9.7752 11.9516 11.2356 13.472 13.0797 12.7648C14.1467 12.3122 14.918 11.4155 15.5245 10.4531C15.6478 10.2575 15.7401 10.0443 15.865 9.85028C15.9664 9.69273 16.0974 9.56083 16.2112 9.41303C16.5359 8.99134 16.8478 8.17033 16.6324 7.66712C16.4861 7.32522 16.1499 7.58331 15.9953 7.32639C15.8146 7.02616 15.9966 6.25384 15.6945 5.97714C15.4321 5.73677 14.5992 5.66631 14.2685 5.65056L13.6919 5.64002C13.6181 5.63683 13.5459 5.62047 13.4719 5.61742L11.0642 5.61508ZM14.5916 12.6919C14.4383 12.8273 14.2878 12.9617 14.1181 13.0767C12.6877 14.0469 11.0063 13.8144 9.74187 12.7116L11.3181 16.6492L12.1137 18.998C12.1298 19.0466 12.1445 19.1264 12.1755 19.1636L13.6738 14.82L14.2524 13.3603C14.357 13.1171 14.4918 12.9133 14.5916 12.6919ZM9.02876 12.8743C8.40415 13.582 8.23737 14.5253 8.29494 15.4497C8.33666 16.1199 8.54534 16.4264 8.91809 16.9472L11.5319 20.998L11.8268 21.4458L11.7756 20.7286C11.723 20.0667 11.5348 19.6084 11.326 18.9788L10.594 16.8519L9.53065 14.023C9.37273 13.639 9.22203 13.2419 9.02876 12.8743ZM15.2666 12.8888C15.1666 13.0624 15.1018 13.2573 15.0271 13.4428L13.7525 16.7871L12.8853 19.3568C12.649 20.0996 12.5924 20.3229 12.5446 21.1013L12.5028 21.4889C12.5898 21.3143 12.6951 21.1589 12.8044 20.9977L14.6631 18.1597L15.5455 16.7309C15.6821 16.5336 15.8519 16.3305 15.9261 16.0995C16.1715 15.3353 16.0235 13.3903 15.3047 12.911L15.2666 12.8888ZM16.6168 13.7793C16.8478 14.6463 16.9144 15.9436 16.441 16.7613C16.3535 16.9124 16.2415 17.0494 16.141 17.192L13.9535 20.6579L12.7288 22.5176C12.6986 22.5709 12.6873 22.6176 12.6413 22.6604C14.567 22.6496 16.4433 22.366 18.3207 21.9537L20.0607 21.5605C20.3709 21.4962 21.1516 21.3661 21.3462 21.154C21.4451 21.0461 21.4691 20.7983 21.4973 20.6587C21.7033 19.638 21.8574 18.5819 21.5247 17.5722C20.9118 15.9108 19.7142 15.1739 18.24 14.4175L17.7045 14.1306C18.401 15.3201 18.4704 16.482 18.4783 17.8408C18.8563 17.9192 19.1469 18.1767 19.3542 18.498C19.9338 19.3961 19.2787 20.5884 18.217 20.6416C17.0727 20.6989 16.2883 19.4668 16.8756 18.4811C17.12 18.0709 17.3452 18.0098 17.7384 17.8402L17.7304 16.9865C17.7121 16.5147 17.6453 16.0042 17.5127 15.5535C17.3696 15.0671 16.9903 14.1453 16.6281 13.7902L16.6168 13.7793ZM7.68809 13.8457C7.07164 14.4198 6.59305 15.9136 6.56459 16.7075L6.55859 17.5968C6.64686 17.6329 6.73986 17.6429 6.82869 17.6828C7.8709 18.1507 7.94351 19.0916 8.00159 20.0566C8.03253 20.5697 8.15708 21.1039 7.53955 21.3246C6.51401 21.691 6.30125 20.8071 6.9193 20.6475C7.03072 20.6188 7.16014 20.6281 7.27484 20.6279C7.27362 19.9653 7.32654 19.0837 6.81931 18.5811C6.41379 18.1793 5.92826 18.1698 5.52111 18.5857C5.1403 18.9746 5.11798 19.5376 5.11128 20.0511L5.10983 20.6137C5.1103 20.6287 5.11015 20.6238 5.11569 20.6404C5.35611 20.646 5.62714 20.6385 5.72436 20.9146C5.98578 21.6568 4.60413 21.6611 4.38269 20.9395C4.34623 20.8207 4.34838 20.6983 4.35077 20.5755L4.36907 20.1211C4.39633 19.5517 4.39304 18.984 4.67698 18.471C4.8762 18.1109 5.24844 17.7274 5.65283 17.6047C5.7042 17.5891 5.75108 17.5853 5.80006 17.5598L5.81576 16.6862C5.873 15.8261 6.08642 14.9193 6.5644 14.1937L5.73294 14.6137C5.22359 14.8757 4.71791 15.1585 4.27095 15.5195C2.63784 16.8382 2.43338 18.3862 2.75383 20.2966C2.92934 21.3429 3.09184 21.3126 4.12841 21.5477L8.79439 22.4529L10.6743 22.6281L11.6986 22.6508C11.5989 22.5463 11.528 22.3799 11.4551 22.2546L9.7812 19.7072L8.27487 17.3232C8.09773 17.0514 7.89636 16.8104 7.77101 16.5068C7.42733 15.6743 7.44256 14.6983 7.70858 13.8479L7.68809 13.8457ZM18.1044 18.5319C17.1811 18.6173 17.2376 19.8658 18.129 19.8783C19.0687 19.804 18.9755 18.5685 18.1044 18.5319Z" fill="#333333"/>
<path d="M12.2178 4.3029C11.854 4.25409 11.761 4.07755 11.7629 3.73668L11.7651 3.45121C11.5664 3.43788 11.2365 3.50247 11.0749 3.37222C10.9227 3.24952 10.8633 3.0027 11.0046 2.84887C11.2771 2.55227 11.7677 2.82593 11.7663 2.63316C11.764 2.31844 11.7103 1.93289 12.1029 1.85414C12.644 1.82592 12.534 2.33994 12.5634 2.69915L12.9712 2.70184C13.0411 2.70411 13.1303 2.70821 13.1925 2.74289L13.2115 2.75537C13.4251 2.89402 13.4875 3.23259 13.2467 3.38367L13.2323 3.39255C13.0885 3.48593 12.7178 3.44436 12.5528 3.44399C12.5541 3.60185 12.5786 3.81437 12.5335 3.965L12.5273 3.98439C12.4756 4.15533 12.4033 4.26716 12.2178 4.3029Z" fill="#333333"/>
</svg>
