<svg width="53" height="53" viewBox="0 0 53 53" fill="none" xmlns="http://www.w3.org/2000/svg">
<path d="M27.0165 30.073L25.8626 30.0797C22.4216 29.7581 19.7388 26.2213 18.7394 23.1444L18.6015 22.6845C18.5164 22.3669 18.4949 22.4881 18.2321 22.3025C16.8694 21.34 14.8727 16.487 17.9187 16.8727C17.9451 16.7518 17.9313 16.6059 17.932 16.4812L17.9415 15.6824C17.9701 15.0415 18.1535 14.3593 18.3337 13.7458C17.6861 12.8076 17.8381 12.0658 17.5653 11.0249C17.4235 10.4838 17.0479 9.98151 17.0226 9.41697C16.9542 7.89672 18.9694 6.95537 20.1264 6.4728C21.9979 5.69222 24.0337 5.22547 26.0617 5.15955L28.4221 5.2544C30.3657 5.45116 32.2733 5.96111 34.0131 6.86149C35.0714 7.40914 36.5829 8.37058 36.235 9.78824C36.1081 10.3057 35.8337 10.7516 35.6963 11.3668L35.532 12.3175C35.4942 12.573 35.4653 12.831 35.3644 13.0715C35.1888 13.49 34.8342 13.535 34.9106 13.9928C35.0811 15.0133 35.1122 16.0068 35.044 17.0426L35.1605 17.0266C36.0641 16.9266 36.5166 17.5526 36.5943 18.395C36.7121 19.6715 36.0999 21.0833 35.2199 21.9918C34.5724 22.6603 34.6999 22.1886 34.3606 23.1752L34.0597 23.9684C32.875 26.892 30.3144 29.766 27.0165 30.073ZM26.1298 6.49157C23.8398 6.59068 19.9856 7.39915 18.3786 9.13642C18.2946 9.22739 18.7866 10.5584 18.8488 10.8335L19.0643 12.0227C19.1144 12.3027 19.1214 12.7196 19.3976 12.8705C19.845 13.1147 20.3727 13.2678 20.8564 13.4244C22.8933 14.0836 25.0227 14.4698 27.1665 14.4601C28.7764 14.4254 32.6558 13.7411 34.0574 12.7488C34.2216 12.1999 34.2777 11.6073 34.4187 11.0482L34.7244 9.96961C34.8021 9.71622 34.9063 9.44707 34.9349 9.18326C33.8455 7.91202 31.4109 7.15113 29.8517 6.82121L28.1983 6.55221C27.5247 6.44481 26.8108 6.48854 26.1298 6.49157ZM19.5347 14.4031C19.2295 15.3815 19.2488 16.44 19.3578 17.4512C19.39 17.7508 19.4967 18.0951 19.4566 18.393C19.4171 18.686 19.0378 18.9835 18.7395 18.8917C18.2828 18.7512 18.2715 18.2626 17.5912 18.143C17.6245 18.8661 18.1852 20.3926 18.7517 20.9231C18.9885 21.1448 19.325 21.1202 19.5231 21.4111C19.7505 21.745 19.8267 22.2748 19.9493 22.6631C20.8611 25.5501 23.4574 28.8743 26.7545 28.7341L26.955 28.7168C28.6665 28.5275 30.1076 27.5017 31.1699 26.1878L31.6296 25.5776C32.2214 24.7364 32.7189 23.8086 33.0871 22.8475C33.2439 22.4383 33.337 21.9781 33.5402 21.5916C33.7194 21.2506 34.1305 21.2056 34.4006 20.9575C34.8553 20.5398 35.392 19.1344 35.2781 18.5083C35.1701 17.9142 34.6327 19.0341 34.256 19.0746C33.9459 19.1079 33.4443 18.8586 33.4359 18.5014C33.4292 18.2165 33.5077 17.9079 33.5454 17.6244C33.6845 16.5802 33.8547 15.4974 33.5768 14.4643C28.6352 16.3781 24.5131 16.0915 19.5347 14.4031Z" fill="#333333"/>
<path d="M26.7712 12.827L26.6846 12.8346C25.8257 12.8755 25.9621 11.8223 25.962 11.2543L25.1801 11.2525C25.0381 11.2516 24.864 11.2611 24.7278 11.2194L24.6991 11.21C24.1797 11.0472 23.9486 10.449 24.3775 10.0281C24.6336 9.77671 24.9107 9.81715 25.2382 9.8165L25.9489 9.81748C25.9633 9.12161 25.7618 8.37365 26.5706 8.07693L26.6522 8.07312C27.4928 8.07264 27.3255 9.28666 27.3111 9.81338L28.1534 9.81601C28.3307 9.81715 28.5426 9.79648 28.7044 9.87778L28.7365 9.89467C29.1532 10.1026 29.3175 10.659 28.9459 11.0078C28.5839 11.3476 27.7889 11.2465 27.327 11.2405C27.3289 11.8584 27.4831 12.5751 26.7712 12.827ZM30.4713 35.7513L28.8231 39.0482C28.5597 39.5587 27.6793 41.461 27.2438 41.6904C26.4878 42.0887 26.0087 40.964 25.7002 40.4721C24.5369 38.6177 23.4803 36.6773 22.4892 34.7263L20.7244 30.9362C20.5958 30.6191 20.4911 30.2909 20.3334 29.9867C18.4052 30.5618 17.3634 32.8165 17.1211 34.6626C17.0618 35.1141 17.0919 35.5956 17.0943 36.0511C17.096 36.3753 17.0169 36.373 17.3396 36.4261C19.4845 36.7788 20.6119 38.7511 21.1971 40.6566C21.2978 40.9848 21.4209 41.371 21.3672 41.7188L21.3605 41.759C21.2273 42.5941 20.3327 42.7064 19.7119 43.0205C19.4034 43.1766 19.0924 43.455 18.7459 43.512C17.7575 43.6749 17.6603 41.8044 19.0824 41.7128C19.4582 41.6885 18.9257 42.313 20.0115 41.3349L19.9954 41.2706C19.7133 40.2165 18.8278 38.5336 17.9077 38.0203C15.5986 36.732 13.9329 39.8627 14.4778 41.6102C14.7648 41.6652 15.1145 41.5801 15.3886 41.6678C15.9912 41.8604 15.9224 42.7455 15.3594 42.9695C15.1434 43.0554 14.8851 42.9924 14.6571 42.9873C13.4237 42.9597 13.1616 42.8395 13.0993 41.3892C13.0181 39.4998 13.7092 37.1969 15.71 36.5981L15.744 35.2527C15.7869 34.1972 16.0077 33.125 16.3952 32.1427C15.6829 32.4917 14.9742 32.819 14.2929 33.2302C12.1263 34.5378 10.3194 36.7493 9.42743 39.1291C9.27698 39.5303 9.00119 40.6116 8.29285 40.1889C7.65262 39.8069 8.00666 39.0535 8.2251 38.5291C9.59805 35.232 12.0613 32.5593 15.3755 31.1423L16.7392 30.6069C17.4995 30.3175 17.7531 30.1832 18.3579 29.6354C18.8917 29.152 19.5566 28.6554 20.2899 28.5452L20.5491 28.5166C20.9422 28.4854 21.1136 28.6193 21.2993 28.9655C21.6073 29.5398 21.8509 30.1539 22.1032 30.754L22.7779 32.284C23.3915 33.6509 24.1015 34.9897 24.8369 36.2944L25.5215 34.7581C25.6932 34.3619 25.9478 33.8773 25.9891 33.4468C26.0105 33.2245 25.8064 33.1287 25.6475 33.0139L24.937 32.5224C24.4888 32.2162 23.8172 31.582 24.507 31.1273C25.0288 30.7834 25.4303 31.2414 25.8151 31.5328C26.9965 32.4278 27.4104 31.3698 28.2985 31.1101C28.9048 30.9327 29.5393 31.6185 28.6496 32.3561C28.2109 32.72 27.8087 32.9743 27.2951 33.2169C27.338 34.0559 28.1414 35.8394 28.5446 36.6532C29.069 35.6684 29.5193 34.648 29.9649 33.6259L31.4874 29.8548C31.9943 28.4953 32.1327 28.1168 33.6584 28.9162C34.1852 29.1922 35.0277 29.8443 35.5139 29.9544L36.2732 30.1201C38.4234 30.6276 40.8912 31.4326 42.1091 33.4255C42.6235 34.2672 44.0964 37.6568 43.822 38.6476C43.6524 39.2599 42.8443 39.3035 42.6159 38.7245C42.4758 38.3692 42.4486 37.9453 42.3577 37.5721C41.6678 34.7391 40.716 32.941 37.7655 31.9324L36.4066 31.5088C37.0028 32.5388 37.4472 33.6544 37.6406 34.8314C40.9739 35.7033 41.0019 40.533 37.5021 41.3354C33.2409 42.3123 31.5877 35.7654 36.3006 34.7991L36.0394 33.8116C35.4646 32.24 34.3854 30.7143 32.8354 29.9932C32.5721 30.8482 32.2407 31.6582 31.9051 32.4867L30.4713 35.7513ZM26.6131 35.5682C26.2905 36.0177 25.82 37.3377 25.7327 37.8932C26.0525 38.5975 26.5159 39.2159 26.9 39.8841L27.7357 38.2452L27.1386 36.8076C27.0651 36.6132 26.7915 35.6421 26.6131 35.5682ZM36.5989 36.1286C33.9249 36.4602 34.291 40.2724 36.9949 40.079C39.5994 39.7275 39.3436 35.9619 36.5989 36.1286Z" fill="#333333"/>
</svg>
