<svg width="17" height="17" viewBox="0 0 17 17" fill="none" xmlns="http://www.w3.org/2000/svg">
<g clip-path="url(#clip0_3581_2076)">
<path d="M8.40624 16.9823C12.9712 16.9823 16.6718 13.2817 16.6718 8.71673C16.6718 4.15179 12.9712 0.451172 8.40624 0.451172C3.8413 0.451172 0.140686 4.15179 0.140686 8.71673C0.140686 13.2817 3.8413 16.9823 8.40624 16.9823Z" fill="#FB3748"/>
<path d="M10.7476 16.6371C10.9686 16.5741 11.1869 16.502 11.4019 16.4209C11.6585 16.321 11.91 16.2083 12.1553 16.0833C12.4009 15.9582 12.64 15.8209 12.8719 15.6719C13.1038 15.5232 13.3281 15.363 13.5439 15.1919C13.76 15.0205 13.9673 14.8384 14.1651 14.6463C14.3629 14.4543 14.5509 14.2525 14.7284 14.0417C14.9059 13.8308 15.0727 13.6112 15.2282 13.3836C15.384 13.1561 15.5283 12.921 15.6606 12.6791C15.7928 12.4373 15.9129 12.189 16.0204 11.9352C16.1276 11.6815 16.222 11.4227 16.3034 11.1595C16.3118 11.127 16.3201 11.0943 16.3282 11.0616L12.1305 6.864L10.2619 4.99471C10.2324 4.96512 10.1974 4.94165 10.1588 4.92563C10.1202 4.90961 10.0789 4.90137 10.0371 4.90137C9.99534 4.90137 9.95399 4.90961 9.91542 4.92563C9.87685 4.94165 9.84183 4.96512 9.81235 4.99471L8.4053 6.4024L6.99824 4.99535C6.93863 4.93575 6.85778 4.90227 6.77348 4.90227C6.68919 4.90227 6.60834 4.93575 6.54873 4.99535L4.68389 6.86018C4.62429 6.9198 4.59081 7.00065 4.59081 7.08494C4.59081 7.16924 4.62429 7.25009 4.68389 7.3097L6.0903 8.71675L4.68389 10.1238C4.65426 10.1532 4.63075 10.1882 4.61471 10.2267C4.59866 10.2652 4.59041 10.3065 4.59042 10.3482V10.3495C4.59042 10.4309 4.62221 10.5129 4.68389 10.5746L6.54873 12.4388L10.7476 16.6371Z" fill="#DF2209"/>
<path d="M6.76897 4.90211C6.68636 4.90329 6.60746 4.93658 6.54898 4.99493L4.6835 6.86041C4.62391 6.92002 4.59043 7.00087 4.59043 7.08517C4.59043 7.16946 4.62391 7.25031 4.6835 7.30993L6.09119 8.71698L4.68414 10.124C4.65444 10.1536 4.63087 10.1887 4.61479 10.2274C4.5987 10.2661 4.59042 10.3075 4.59042 10.3494C4.59042 10.3913 4.5987 10.4328 4.61479 10.4715C4.63087 10.5102 4.65444 10.5453 4.68414 10.5748L6.54961 12.439C6.60923 12.4986 6.69007 12.5321 6.77437 12.5321C6.85867 12.5321 6.93952 12.4986 6.99913 12.439L8.40555 11.0332L9.8126 12.4384C9.87222 12.498 9.95306 12.5315 10.0374 12.5315C10.1217 12.5315 10.2025 12.498 10.2621 12.4384L12.1282 10.5748C12.158 10.5453 12.1817 10.5101 12.1978 10.4714C12.214 10.4326 12.2223 10.3911 12.2223 10.3491C12.2223 10.3071 12.214 10.2656 12.1978 10.2268C12.1817 10.1881 12.158 10.1529 12.1282 10.1234L10.7205 8.71698L12.1282 7.30993C12.1878 7.25031 12.2213 7.16946 12.2213 7.08517C12.2213 7.00087 12.1878 6.92002 12.1282 6.86041L10.2621 4.99493C10.2025 4.93534 10.1217 4.90186 10.0374 4.90186C9.95306 4.90186 9.87222 4.93534 9.8126 4.99493L8.40555 6.40262L6.9985 4.99493C6.96839 4.9649 6.93257 4.9412 6.89314 4.92526C6.85371 4.90931 6.81149 4.90144 6.76897 4.90211Z" fill="white"/>
</g>
<defs>
<clipPath id="clip0_3581_2076">
<rect width="16.5311" height="16.5311" fill="white" transform="translate(0.140686 0.451172)"/>
</clipPath>
</defs>
</svg>
