<svg width="18" height="16" viewBox="0 0 18 16" fill="none" xmlns="http://www.w3.org/2000/svg">
<path d="M15.3732 9.07605L12.9954 11.6593C11.6085 13.1661 10.915 13.9195 10.1021 14.1986C9.38782 14.4438 8.61218 14.4438 7.89791 14.1986C7.08496 13.9195 6.3915 13.1661 5.00458 11.6593L2.62682 9.07605L2.62681 9.07604C2.14795 8.5558 1.90853 8.29568 1.74496 8.03724C1.0435 6.92889 1.0435 5.51556 1.74496 4.40721C1.90853 4.14876 2.14796 3.88864 2.62682 3.3684L3.10909 2.84444C3.2205 2.72341 3.2762 2.6629 3.32423 2.61474C4.65037 1.2851 6.80418 1.2851 8.13032 2.61474C8.17835 2.6629 8.23405 2.72341 8.34545 2.84444C8.37331 2.8747 8.38723 2.88983 8.39924 2.90187C8.73077 3.23428 9.26923 3.23428 9.60076 2.90187C9.61277 2.88983 9.62669 2.87471 9.65454 2.84446L9.65455 2.84444C9.76595 2.72341 9.82165 2.6629 9.86968 2.61474C11.1958 1.2851 13.3496 1.2851 14.6758 2.61474C14.7238 2.6629 14.7795 2.72341 14.8909 2.84444L15.3732 3.36839C15.852 3.88864 16.0915 4.14876 16.255 4.40721C16.9565 5.51556 16.9565 6.92889 16.255 8.03724C16.0915 8.29569 15.852 8.55581 15.3732 9.07605Z" stroke="#ED5E5E" stroke-width="2" stroke-linejoin="round"/>
</svg>
