<svg width="25" height="25" viewBox="0 0 25 25" fill="none" xmlns="http://www.w3.org/2000/svg">
<path d="M4.5 17.7026H12.6C13 19.4026 14.6 20.7026 16.5 20.7026C18.4 20.7026 19.9 19.4026 20.4 17.7026H20.5C21.1 17.7026 21.5 17.3026 21.5 16.7026C21.5 16.1026 21.1 15.7026 20.5 15.7026H20.4C20 14.0026 18.4 12.7026 16.5 12.7026C14.6 12.7026 13.1 14.0026 12.6 15.7026H4.5C3.9 15.7026 3.5 16.1026 3.5 16.7026C3.5 17.3026 3.9 17.7026 4.5 17.7026ZM16.5 14.7026C17.6 14.7026 18.5 15.6026 18.5 16.7026C18.5 17.8026 17.6 18.7026 16.5 18.7026C15.4 18.7026 14.5 17.8026 14.5 16.7026C14.5 15.6026 15.4 14.7026 16.5 14.7026ZM4.5 9.70264H4.6C5 11.4026 6.6 12.7026 8.5 12.7026C10.4 12.7026 11.9 11.4026 12.4 9.70264H20.5C21.1 9.70264 21.5 9.30264 21.5 8.70264C21.5 8.10264 21.1 7.70264 20.5 7.70264H12.4C12 6.00264 10.4 4.70264 8.5 4.70264C6.6 4.70264 5.1 6.00264 4.6 7.70264H4.5C3.9 7.70264 3.5 8.10264 3.5 8.70264C3.5 9.30264 3.9 9.70264 4.5 9.70264ZM8.5 6.70264C9.6 6.70264 10.5 7.60264 10.5 8.70264C10.5 9.80264 9.6 10.7026 8.5 10.7026C7.4 10.7026 6.5 9.80264 6.5 8.70264C6.5 7.60264 7.4 6.70264 8.5 6.70264Z" fill="#B2BCC9"/>
</svg>
