<svg width="24" height="24" viewBox="0 0 24 24" fill="none" xmlns="http://www.w3.org/2000/svg">
<path d="M16.8873 1.75818C14.7034 1.75818 12.6668 2.50498 12.0023 4.13167C11.2799 2.50498 9.30128 1.75818 7.11732 1.75818C4.17274 1.75818 1.75818 3.14403 1.75818 5.97226V21.0683H2.93919C3.62518 19.6635 5.29897 18.8279 7.11726 18.8279C9.26293 18.8279 11.0581 20.2963 11.4709 22.2418H12.5225C12.9354 20.2963 14.736 18.8279 16.8818 18.8279C18.7 18.8279 20.1437 19.4502 21.0655 21.0683H22.2418V5.97226C22.2418 3.14403 19.832 1.75818 16.8873 1.75818ZM11.5733 20.2642C10.6131 18.8842 8.97386 17.9744 7.11913 17.9744C5.26446 17.9744 3.67852 18.5108 2.66501 19.8908L2.61166 19.9194V5.86558C2.77169 3.63451 4.75012 2.61166 7.10809 2.61166C9.51716 2.61166 11.4899 3.6096 11.5549 5.90868C11.554 5.94756 11.5558 5.9865 11.5558 6.0256L11.5733 6.72456V20.2642ZM21.3883 6.23898V19.8908C20.4282 18.5108 18.7355 17.9744 16.8809 17.9744C15.0261 17.9744 13.3869 18.8842 12.4267 20.2642V6.0256C12.4267 3.67255 14.4356 2.61166 16.8855 2.61166C19.2434 2.61166 21.2283 3.20777 21.3883 5.43883V6.23898Z" fill="currentColor"/>
<path d="M8.01862 11.9019H7.56046V11.4437C7.56046 11.4076 7.53114 11.3783 7.49501 11.3783H7.07612C7.03999 11.3783 7.01067 11.4076 7.01067 11.4437V11.9019H6.55251C6.51638 11.9019 6.48706 11.9312 6.48706 11.9674V12.3862C6.48706 12.4224 6.51638 12.4517 6.55251 12.4517H7.01067V12.9099C7.01067 12.946 7.03999 12.9753 7.07612 12.9753H7.49501C7.53114 12.9753 7.56046 12.946 7.56046 12.9099V12.4517H8.01862C8.05475 12.4517 8.08407 12.4224 8.08407 12.3862V11.9674C8.08407 11.9312 8.05475 11.9019 8.01862 11.9019ZM7.95317 12.3208H7.49501C7.45888 12.3208 7.42956 12.3501 7.42956 12.3862V12.8444H7.14157V12.3862C7.14157 12.3501 7.11225 12.3208 7.07612 12.3208H6.61796V12.0328H7.07612C7.11225 12.0328 7.14157 12.0035 7.14157 11.9674V11.5092H7.42956V11.9674C7.42956 12.0035 7.45888 12.0328 7.49501 12.0328H7.95317V12.3208Z" fill="currentColor"/>
<path d="M9.48471 9.91217H9.27527V10.0431H9.48471V9.91217Z" fill="currentColor"/>
<path d="M5.23042 10.187H5.36132V10.043H5.50531V9.91206H5.36132V9.76807H5.23042V9.91206H5.08643V10.043H5.23042V10.187Z" fill="currentColor"/>
<path d="M9.68266 12.3034L9.57761 12.1458C9.48997 12.0143 9.4361 11.8618 9.42183 11.7044L9.36862 11.1188C9.35946 11.0178 9.31312 10.9244 9.23818 10.856C9.16324 10.7876 9.06611 10.7499 8.96466 10.7499H8.1888V10.1838C8.1888 10.034 8.06693 9.91217 7.91717 9.91217H6.65396C6.50421 9.91217 6.38234 10.034 6.38234 10.1838V10.7499H5.60648C5.50503 10.7499 5.4079 10.7876 5.33296 10.856C5.25802 10.9244 5.21174 11.0178 5.20252 11.1188L5.1493 11.7044C5.13504 11.8617 5.0811 12.0143 4.99353 12.1458L4.88848 12.3034C4.76962 12.4816 4.70679 12.6891 4.70679 12.9034V13.9787C4.70679 14.1183 4.82041 14.232 4.96008 14.232H9.61105C9.75073 14.232 9.86435 14.1183 9.86435 13.9787V12.9034C9.86435 12.6891 9.80152 12.4816 9.68266 12.3034ZM6.51324 10.1838C6.51324 10.1062 6.57634 10.0431 6.65396 10.0431H7.91717C7.99473 10.0431 8.05789 10.1062 8.05789 10.1838V10.7499H7.87463V10.389C7.87463 10.2993 7.80165 10.2263 7.71192 10.2263H6.85922C6.76949 10.2263 6.69651 10.2993 6.69651 10.389V10.7499H6.51324V10.1838ZM7.74373 10.7499H6.82741V10.389C6.82741 10.3715 6.84168 10.3572 6.85922 10.3572H7.71192C7.72946 10.3572 7.74373 10.3715 7.74373 10.389V10.7499ZM9.61105 14.1011H4.96008C4.8926 14.1011 4.83769 14.0461 4.83769 13.9787V13.6036H8.12335V13.4727H4.83769V12.9034C4.83769 12.7151 4.89293 12.5326 4.99739 12.376L5.10244 12.2183C5.20212 12.0689 5.26339 11.8952 5.27968 11.7163L5.33289 11.1307C5.34585 10.9883 5.46347 10.8808 5.60648 10.8808H6.44779H6.76196H7.80918H8.12335H8.96466C9.10767 10.8808 9.22528 10.9883 9.23824 11.1307L9.29146 11.7163C9.30775 11.8952 9.36902 12.0689 9.4687 12.2183L9.57375 12.376C9.67821 12.5326 9.73345 12.715 9.73345 12.9034V13.4727H8.33279V13.6036H9.73345V13.9787C9.73345 14.0461 9.67853 14.1011 9.61105 14.1011Z" fill="currentColor"/>
</svg>
