<svg width="28" height="28" viewBox="0 0 28 28" fill="none" xmlns="http://www.w3.org/2000/svg">
<path d="M24.5 12.6212V9.33332C24.5 8.7141 24.5 8.40448 24.4657 8.14455C24.2294 6.34962 22.817 4.93718 21.0221 4.70088C20.7621 4.66666 20.4525 4.66666 19.8333 4.66666C19.2141 4.66666 18.9045 4.66666 18.6445 4.70088C16.8496 4.93718 15.4372 6.34962 15.2008 8.14455C15.1666 8.40448 15.1666 8.71409 15.1666 9.33332V14C15.1666 15.933 13.5996 17.5 11.6666 17.5C9.73363 17.5 8.16663 19.067 8.16663 21C8.16663 22.933 9.73363 24.5 11.6666 24.5H12.6212C13.7468 24.5 14.3096 24.5 14.784 24.4575C19.924 23.9976 23.9975 19.924 24.4575 14.7841C24.5 14.3096 24.5 13.7468 24.5 12.6212Z" stroke="#33384B" stroke-width="2" stroke-linecap="round" stroke-linejoin="round"/>
<path d="M9.33337 3.5V3.5C9.33337 5.20744 9.33337 6.06116 9.58975 6.74233C9.9955 7.82039 10.8463 8.6712 11.9244 9.07696C12.6055 9.33333 13.4593 9.33333 15.1667 9.33333V9.33333" stroke="#33384B" stroke-width="2" stroke-linecap="round" stroke-linejoin="round"/>
<path d="M3.5 24.5V24.5C3.5 22.567 5.067 21 7 21H8.16667" stroke="#33384B" stroke-width="2" stroke-linecap="round" stroke-linejoin="round"/>
</svg>
