<svg width="28" height="28" viewBox="0 0 28 28" fill="none" xmlns="http://www.w3.org/2000/svg">
<path d="M16.3334 13.3537V9.91668C16.3334 7.66151 18.1615 5.83334 20.4167 5.83334H20.8456C22.8639 5.83334 24.5 7.46949 24.5 9.48779C24.5 10.1501 24.32 10.8 23.9793 11.368L21.868 14.8867C21.3295 15.7842 20.3596 16.3333 19.313 16.3333C17.6674 16.3333 16.3334 14.9993 16.3334 13.3537Z" stroke="#33384B" stroke-width="2" stroke-linecap="round" stroke-linejoin="round"/>
<path d="M12.6136 19.6256L9.01689 21.6808C8.45973 21.9992 7.82913 22.1667 7.18742 22.1667C5.15092 22.1667 3.5 20.5158 3.5 18.4793V12.25C3.5 11.2436 3.5 10.7403 3.56773 10.3194C3.93324 8.04776 5.71441 6.26659 7.98609 5.90107C8.407 5.83334 8.91023 5.83334 9.91667 5.83334C10.9231 5.83334 11.4263 5.83334 11.8472 5.90107C14.1189 6.26659 15.9001 8.04776 16.2656 10.3194C16.3333 10.7403 16.3333 11.2436 16.3333 12.25V13.2158C16.3333 14.369 16.3333 14.9455 16.2249 15.4751C15.9918 16.6129 15.3937 17.6436 14.5214 18.4105C14.1154 18.7674 13.6148 19.0534 12.6136 19.6256L12.6136 19.6256Z" stroke="#33384B" stroke-width="2" stroke-linecap="round" stroke-linejoin="round"/>
<path d="M16.3334 24.5L16.3334 17.5C16.3334 15.567 14.7664 14 12.8334 14V14C10.9004 14 9.33337 12.433 9.33337 10.5V9.33334" stroke="#33384B" stroke-width="2" stroke-linecap="round" stroke-linejoin="round"/>
<path d="M16.3334 24.5L16.3334 15.1667C16.3334 12.5893 18.4227 10.5 21 10.5V10.5" stroke="#33384B" stroke-width="2" stroke-linecap="round" stroke-linejoin="round"/>
</svg>
