<svg width="28" height="28" viewBox="0 0 28 28" fill="none" xmlns="http://www.w3.org/2000/svg">
<path d="M13.9997 2.21607C13.591 2.21607 13.1604 2.33977 12.819 2.68114L4.3757 10.5012L4.36318 10.5106C3.86522 11.0086 3.71803 11.7868 4.00302 12.3537C4.26296 12.8767 4.79849 13.1899 5.3904 13.2384L5.38727 13.2572V24.2185C5.38727 24.6256 5.53603 25.0453 5.83042 25.3396C6.12637 25.6356 6.54447 25.7844 6.95317 25.7844H11.6509C12.0596 25.7844 12.4776 25.6356 12.7736 25.3396C13.068 25.0453 13.2167 24.6272 13.2167 24.2185V19.6774C13.2167 19.7024 13.2277 19.6382 13.281 19.5834C13.3342 19.5317 13.3984 19.5208 13.3733 19.5208H14.6261C14.601 19.5208 14.6652 19.5317 14.7184 19.5834C14.7717 19.6382 14.7826 19.7024 14.7826 19.6774V24.2185C14.7826 24.6256 14.9314 25.0453 15.2258 25.3396C15.5217 25.6356 15.9398 25.7844 16.3485 25.7844H21.0462C21.4549 25.7844 21.873 25.6356 22.169 25.3396C22.4634 25.0453 22.6121 24.6272 22.6121 24.2185V13.2572L22.609 13.2384C23.2009 13.1899 23.7364 12.8767 23.9979 12.3537C24.2814 11.7868 24.1342 11.007 23.6378 10.5106L23.6237 10.5012L15.1804 2.68114C15.0247 2.52862 14.84 2.40888 14.6372 2.329C14.4344 2.24911 14.2176 2.21071 13.9997 2.21607ZM13.9997 3.78196C14.0608 3.78196 14.1015 3.81641 14.0733 3.78823L14.0827 3.80075L22.5291 11.6177C22.6575 11.7461 22.5871 11.6741 22.5965 11.6537C22.6059 11.6349 22.5871 11.6913 22.4555 11.6913H5.54386C5.41233 11.6913 5.39354 11.6349 5.40293 11.6537C5.41233 11.6741 5.3403 11.7461 5.47026 11.6177L13.9167 3.80075L13.9261 3.78823C13.8979 3.81641 13.9386 3.78196 13.9997 3.78196ZM6.95317 13.2556H21.0462V24.2169H16.3485V19.6758C16.3485 19.181 16.1246 18.777 15.8255 18.4779C15.6707 18.3149 15.4848 18.1847 15.2788 18.0948C15.0728 18.005 14.8508 17.9574 14.6261 17.9549H13.3733C12.877 17.9549 12.4729 18.1788 12.1739 18.4779C12.0111 18.6325 11.8809 18.8182 11.7911 19.0239C11.7013 19.2297 11.6536 19.4513 11.6509 19.6758V24.2169H6.95317V13.2556Z" fill="currentColor"/>
</svg>
