<svg width="30" height="29" viewBox="0 0 30 29" fill="none" xmlns="http://www.w3.org/2000/svg">
<g clip-path="url(#clip0_3581_803)">
<path d="M12.9291 6.1255H13.7909V6.98723C13.7911 7.24518 13.8937 7.49247 14.0761 7.67486C14.2585 7.85726 14.5058 7.95986 14.7638 7.96015H15.3197C15.5777 7.95986 15.825 7.85726 16.0074 7.67486C16.1898 7.49247 16.2923 7.24518 16.2926 6.98723V6.1255H17.1544C17.4123 6.12521 17.6596 6.02261 17.842 5.84022C18.0244 5.65782 18.127 5.41053 18.1273 5.15258V4.59663C18.127 4.33869 18.0244 4.09139 17.842 3.909C17.6596 3.7266 17.4123 3.624 17.1544 3.62371H16.2926V2.76198C16.2923 2.50404 16.1898 2.25674 16.0074 2.07435C15.825 1.89196 15.5777 1.78936 15.3197 1.78906H14.7638C14.5058 1.78936 14.2585 1.89196 14.0761 2.07435C13.8937 2.25674 13.7911 2.50404 13.7909 2.76198V3.62371H12.9291C12.6712 3.624 12.4239 3.7266 12.2415 3.909C12.0591 4.09139 11.9565 4.33869 11.9562 4.59663V5.15258C11.9565 5.41053 12.0591 5.65782 12.2415 5.84022C12.4239 6.02261 12.6712 6.12521 12.9291 6.1255ZM12.7901 4.59663C12.7902 4.55978 12.8048 4.52446 12.8309 4.4984C12.8569 4.47234 12.8923 4.45769 12.9291 4.45764H14.2078C14.3184 4.45764 14.4245 4.41371 14.5027 4.33552C14.5809 4.25732 14.6248 4.15126 14.6248 4.04068V2.76198C14.6248 2.72513 14.6395 2.68981 14.6655 2.66375C14.6916 2.6377 14.7269 2.62304 14.7638 2.62299H15.3197C15.3566 2.62304 15.3919 2.6377 15.418 2.66375C15.444 2.68981 15.4587 2.72513 15.4587 2.76198V4.04068C15.4587 4.15126 15.5026 4.25732 15.5808 4.33552C15.659 4.41371 15.7651 4.45764 15.8757 4.45764H17.1544C17.1912 4.45769 17.2265 4.47234 17.2526 4.4984C17.2787 4.52446 17.2933 4.55978 17.2934 4.59663V5.15258C17.2933 5.18943 17.2787 5.22476 17.2526 5.25081C17.2265 5.27687 17.1912 5.29153 17.1544 5.29157H15.8757C15.7651 5.29157 15.659 5.3355 15.5808 5.4137C15.5026 5.4919 15.4587 5.59795 15.4587 5.70854V6.98723C15.4587 7.02408 15.444 7.05941 15.418 7.08546C15.3919 7.11152 15.3566 7.12618 15.3197 7.12622H14.7638C14.7269 7.12618 14.6916 7.11152 14.6655 7.08546C14.6395 7.05941 14.6248 7.02408 14.6248 6.98723V5.70854C14.6248 5.59795 14.5809 5.4919 14.5027 5.4137C14.4245 5.3355 14.3184 5.29157 14.2078 5.29157H12.9291C12.8923 5.29153 12.8569 5.27687 12.8309 5.25081C12.8048 5.22476 12.7902 5.18943 12.7901 5.15258V4.59663ZM27.1893 7.79337H22.6027V7.3764C22.6021 6.82366 22.3823 6.29373 21.9914 5.90289C21.6006 5.51204 21.0706 5.29219 20.5179 5.29157H19.8302C19.8419 5.15409 19.8481 5.0151 19.8481 4.87461C19.8481 2.19224 17.6919 0.0100098 15.0417 0.0100098C12.3916 0.0100098 10.2354 2.19224 10.2354 4.87461C10.2354 5.0151 10.2417 5.15409 10.2533 5.29157H9.5656C9.01286 5.29219 8.48294 5.51204 8.09209 5.90289C7.70124 6.29373 7.48139 6.82366 7.48077 7.3764V7.79337H2.89415C2.34141 7.79398 1.81149 8.01383 1.42064 8.40468C1.02979 8.79553 0.809944 9.32545 0.809326 9.87819L0.809326 26.39C0.809944 26.9428 1.02979 27.4727 1.42064 27.8635C1.81149 28.2544 2.34141 28.4742 2.89415 28.4749H27.1893C27.7421 28.4742 28.272 28.2544 28.6629 27.8635C29.0537 27.4727 29.2736 26.9428 29.2742 26.39V9.87819C29.2736 9.32545 29.0537 8.79553 28.6629 8.40468C28.272 8.01383 27.7421 7.79398 27.1893 7.79337ZM7.48077 19.1348H4.14505V17.6338H7.48077V19.1348ZM7.48077 14.298H4.14505V12.797H7.48077V14.298ZM7.48077 11.963H4.06166C3.86267 11.9632 3.6719 12.0424 3.53119 12.1831C3.39049 12.3238 3.31134 12.5146 3.31112 12.7136V14.3814C3.31134 14.5804 3.39049 14.7712 3.53119 14.9119C3.6719 15.0526 3.86267 15.1317 4.06166 15.132H7.48077V16.7998H4.06166C3.86267 16.8 3.6719 16.8792 3.53119 17.0199C3.39049 17.1606 3.31134 17.3514 3.31112 17.5504V19.2182C3.31134 19.4172 3.39049 19.608 3.53119 19.7487C3.6719 19.8894 3.86267 19.9685 4.06166 19.9688H7.48077V27.6409H2.89415C2.56251 27.6406 2.24455 27.5086 2.01004 27.2741C1.77553 27.0396 1.64363 26.7217 1.64326 26.39V9.87819C1.64363 9.54655 1.77553 9.22859 2.01004 8.99408C2.24455 8.75957 2.56251 8.62766 2.89415 8.6273H7.48077V11.963ZM15.0417 0.843941C17.2321 0.843941 19.0142 2.65207 19.0142 4.87461C19.0142 7.09714 17.2321 8.90527 15.0417 8.90527C12.8514 8.90527 11.0693 7.09714 11.0693 4.87461C11.0693 2.65207 12.8514 0.843941 15.0417 0.843941ZM16.932 27.6409H13.1515V22.8875C13.1516 22.777 13.1956 22.671 13.2738 22.5928C13.3519 22.5146 13.4579 22.4707 13.5685 22.4706H16.515C16.6256 22.4707 16.7316 22.5146 16.8097 22.5928C16.8879 22.671 16.9319 22.777 16.932 22.8875V27.6409ZM21.7688 27.6409H17.7659V22.8875C17.7656 22.5559 17.6336 22.2379 17.3991 22.0034C17.1646 21.7689 16.8467 21.637 16.515 21.6366H13.5685C13.2368 21.637 12.9189 21.7689 12.6844 22.0034C12.4499 22.2379 12.3179 22.5559 12.3176 22.8875V27.6409H8.3147V7.3764C8.31507 7.04475 8.44698 6.7268 8.68149 6.49229C8.916 6.25778 9.23396 6.12587 9.5656 6.1255H10.3968C10.9436 8.20366 12.8187 9.7392 15.0417 9.7392C17.2648 9.7392 19.1399 8.20366 19.6867 6.1255H20.5179C20.8495 6.12587 21.1675 6.25778 21.402 6.49229C21.6365 6.7268 21.7684 7.04475 21.7688 7.3764V27.6409ZM22.6027 12.797H25.9384V14.298H22.6027V12.797ZM22.6027 17.6338H25.9384V19.1348H22.6027V17.6338ZM28.4402 26.39C28.4399 26.7217 28.308 27.0396 28.0735 27.2741C27.8389 27.5086 27.521 27.6406 27.1893 27.6409H22.6027V19.9688H26.0218C26.2208 19.9685 26.4116 19.8894 26.5523 19.7487C26.693 19.608 26.7722 19.4172 26.7724 19.2182V17.5504C26.7722 17.3514 26.693 17.1606 26.5523 17.0199C26.4116 16.8792 26.2208 16.8 26.0218 16.7998H22.6027V15.132H26.0218C26.2208 15.1317 26.4116 15.0526 26.5523 14.9119C26.693 14.7712 26.7722 14.5804 26.7724 14.3814V12.7136C26.7722 12.5146 26.693 12.3238 26.5523 12.1831C26.4116 12.0424 26.2208 11.9632 26.0218 11.963H22.6027V8.6273H27.1893C27.521 8.62766 27.8389 8.75957 28.0735 8.99408C28.308 9.22859 28.4399 9.54655 28.4402 9.87819V26.39ZM19.3504 11.963H16.2093C16.0103 11.9632 15.8195 12.0424 15.6788 12.1831C15.5381 12.3238 15.4589 12.5146 15.4587 12.7136V14.3814C15.4589 14.5804 15.5381 14.7712 15.6788 14.9119C15.8195 15.0526 16.0103 15.1317 16.2093 15.132H19.3504C19.5494 15.1317 19.7402 15.0526 19.8809 14.9119C20.0216 14.7712 20.1007 14.5804 20.1009 14.3814V12.7136C20.1007 12.5146 20.0216 12.3238 19.8809 12.1831C19.7402 12.0424 19.5494 11.9632 19.3504 11.963ZM19.267 14.298H16.2926V12.797H19.267V14.298ZM19.3504 16.7998H16.2093C16.0103 16.8 15.8195 16.8792 15.6788 17.0199C15.5381 17.1606 15.4589 17.3514 15.4587 17.5504V19.2182C15.4589 19.4172 15.5381 19.608 15.6788 19.7487C15.8195 19.8894 16.0103 19.9685 16.2093 19.9688H19.3504C19.5494 19.9685 19.7402 19.8894 19.8809 19.7487C20.0216 19.608 20.1007 19.4172 20.1009 19.2182V17.5504C20.1007 17.3514 20.0216 17.1606 19.8809 17.0199C19.7402 16.8792 19.5494 16.8 19.3504 16.7998ZM19.267 19.1348H16.2926V17.6338H19.267V19.1348ZM13.8742 16.7998H10.7331C10.5341 16.8 10.3433 16.8792 10.2026 17.0199C10.0619 17.1606 9.98279 17.3514 9.98257 17.5504V19.2182C9.98279 19.4172 10.0619 19.608 10.2026 19.7487C10.3433 19.8894 10.5341 19.9685 10.7331 19.9688H13.8742C14.0732 19.9685 14.264 19.8894 14.4047 19.7487C14.5454 19.608 14.6246 19.4172 14.6248 19.2182V17.5504C14.6246 17.3514 14.5454 17.1606 14.4047 17.0199C14.264 16.8792 14.0732 16.8 13.8742 16.7998ZM13.7909 19.1348H10.8165V17.6338H13.7909V19.1348ZM13.8742 11.963H10.7331C10.5341 11.9632 10.3433 12.0424 10.2026 12.1831C10.0619 12.3238 9.98279 12.5146 9.98257 12.7136V14.3814C9.98279 14.5804 10.0619 14.7712 10.2026 14.9119C10.3433 15.0526 10.5341 15.1317 10.7331 15.132H13.8742C14.0732 15.1317 14.264 15.0526 14.4047 14.9119C14.5454 14.7712 14.6246 14.5804 14.6248 14.3814V12.7136C14.6246 12.5146 14.5454 12.3238 14.4047 12.1831C14.264 12.0424 14.0732 11.9632 13.8742 11.963ZM13.7909 14.298H10.8165V12.797H13.7909V14.298Z" fill="#333333"/>
</g>
<defs>
<clipPath id="clip0_3581_803">
<rect width="28.4648" height="28.4648" fill="white" transform="translate(0.809326 0.0100098)"/>
</clipPath>
</defs>
</svg>
