<svg width="28" height="28" viewBox="0 0 28 28" fill="none" xmlns="http://www.w3.org/2000/svg">
<path fill-rule="evenodd" clip-rule="evenodd" d="M24.9343 15.0141C25.0732 15.9129 24.9911 16.8321 24.695 17.692C24.5169 17.9971 24.2673 18.2543 23.9676 18.4413C23.5547 18.6681 23.3998 18.6822 21.3084 18.6868C20.5403 18.7633 19.7651 18.7312 19.0059 18.5914C18.5219 18.4444 18.1236 18.0979 17.911 17.6388C17.7074 17.0717 17.6383 16.465 17.7092 15.8666V15.1329C17.7075 14.9389 17.5813 14.7679 17.3963 14.709C15.2015 14.1352 12.8964 14.132 10.6999 14.6997C10.456 14.7737 10.2878 14.9969 10.2838 15.2518V15.9495C10.2891 16.3893 10.2688 16.8291 10.2228 17.2665C10.0788 17.8787 9.62953 18.3735 9.03404 18.5758C8.27311 18.7351 7.49179 18.7731 6.719 18.6884C4.7606 18.6884 4.70116 18.6884 4.37267 18.5742C3.79838 18.4056 3.3511 17.9536 3.18856 17.3776C3.05741 16.8672 3.01456 16.3382 3.06186 15.8134C3.06186 15.1392 3.06186 14.5104 3.06186 14.4181C3.13632 13.5828 3.53363 12.8095 4.16932 12.2626C5.34516 11.2819 6.72163 10.5707 8.20187 10.1791C11.3713 9.20346 14.7348 9.03835 17.9845 9.69886C18.6747 9.82476 19.3545 10.0025 20.018 10.2307C21.6004 10.6476 23.0401 11.4861 24.1835 12.6568C24.745 13.3071 25.0163 14.1588 24.9343 15.0141V15.0141Z" fill="#333333" stroke="#333333" stroke-width="2" stroke-linecap="round" stroke-linejoin="round"/>
</svg>
