<svg width="21" height="20" viewBox="0 0 21 20" fill="none" xmlns="http://www.w3.org/2000/svg">
<g clip-path="url(#clip0_3581_409)">
<path d="M7.42546 15.3597L4.91364 12.8884L2.15875 15.6028L4.67056 18.0741L7.42546 15.3597ZM15.204 7.21655L13.1783 5.19089L14.6368 3.73242L16.4194 4.01601L16.703 5.75808L15.204 7.21655Z" fill="currentColor"/>
<path d="M1.75359 15.6027L3.05001 16.8586L5.31874 19.1274L5.76438 18.6817L5.15669 18.074L7.42542 15.8053L9.24851 17.6284L9.69415 17.1828L8.47876 16.0079L15.7306 8.83705C15.9332 8.63449 16.0547 8.3509 16.0547 8.06731C16.0547 7.78371 15.9332 7.50012 15.7306 7.29756L15.6496 7.21653L17.027 5.8796L16.7434 4.09702L20.2276 0.653408L19.7819 0.207764L16.2978 3.65138L14.5152 3.36779L13.1378 4.70472L13.0973 4.6642C12.6921 4.25907 11.9629 4.25907 11.5578 4.6642L4.30591 11.835L3.09052 10.6601L2.64487 11.1058L3.86027 12.2807L4.2654 12.6858L4.50848 12.9289L2.15872 15.1976L1.55102 14.5899L1.10538 14.995L1.75359 15.6027ZM13.5834 5.19088L14.7178 4.05651L16.1357 4.25907L16.3383 5.63652L15.2039 6.77089L14.2721 5.83908L13.5834 5.19088ZM11.9629 5.10985C12.1655 4.90728 12.449 4.90728 12.6516 5.10985L14.0696 6.52781L15.2039 7.66217L15.285 7.7432C15.366 7.82423 15.4065 7.94577 15.4065 8.06731C15.4065 8.18884 15.366 8.31038 15.285 8.39141L14.4747 9.16116L12.8137 7.50012L12.368 7.94577L14.0291 9.56629L13.0162 10.5791L11.3552 8.91808L10.9095 9.36372L12.5706 10.9842L11.5578 11.9971L9.89672 10.336L9.45108 10.7817L11.1121 12.4022L10.0993 13.415L8.43825 11.754L7.9926 12.1996L9.65364 13.8202L8.03312 15.4407L6.7367 14.1443L6.00746 13.415L4.91361 12.3617L4.71104 12.1591L11.9629 5.10985ZM4.91361 13.2935L6.97978 15.3597L4.67053 17.6689L3.73873 16.7371L2.60436 15.6027L4.91361 13.2935ZM17.2701 10.174L17.027 9.76886L16.7839 10.174C16.5004 10.6196 13.948 14.5899 13.948 16.1699C13.948 17.8715 15.3255 19.2084 17.027 19.2084C18.7286 19.2084 20.106 17.831 20.106 16.1699C20.106 14.5899 17.5537 10.6196 17.2701 10.174ZM16.9865 18.6007C15.6091 18.6007 14.5152 17.5069 14.5152 16.1699C14.5152 15.1166 16.1357 12.3212 16.9865 10.9032C17.8778 12.3212 19.4578 15.1166 19.4578 16.1699C19.4983 17.5069 18.364 18.6007 16.9865 18.6007Z" fill="currentColor"/>
</g>
<defs>
<clipPath id="clip0_3581_409">
<rect width="19.4463" height="19.4463" fill="white" transform="translate(0.943359 0.00512695)"/>
</clipPath>
</defs>
</svg>
