<svg width="28" height="28" viewBox="0 0 28 28" fill="none" xmlns="http://www.w3.org/2000/svg">
<path fill-rule="evenodd" clip-rule="evenodd" d="M6.19984 18.1964C4.9078 18.1165 3.92657 17.0592 4.00432 15.8307V12.1693C3.92657 10.9408 4.9078 9.88351 6.19984 9.80358H7.83834C8.3295 9.80064 8.80301 9.6291 9.17165 9.32057L11.4575 7.44626C12.1525 6.92575 13.1087 6.85425 13.8807 7.26507C14.6527 7.67589 15.0885 8.48818 14.9849 9.32338V18.6766C15.0885 19.5118 14.6527 20.3241 13.8807 20.7349C13.1087 21.1457 12.1525 21.0742 11.4575 20.5537L9.16869 18.6794C8.80005 18.3709 8.32654 18.1994 7.83537 18.1964H6.19984Z" stroke="#33384B" stroke-width="2" stroke-linecap="round" stroke-linejoin="round"/>
<path d="M22.4588 6.94216C22.1266 6.50096 21.4997 6.4126 21.0585 6.7448C20.6173 7.07701 20.5289 7.70398 20.8611 8.14518L22.4588 6.94216ZM20.8611 19.7885C20.5289 20.2297 20.6173 20.8566 21.0585 21.1888C21.4997 21.521 22.1266 21.4327 22.4588 20.9915L20.8611 19.7885ZM18.9294 8.49674C18.5689 8.07842 17.9374 8.03161 17.5191 8.39219C17.1008 8.75278 17.054 9.38421 17.4145 9.80254L18.9294 8.49674ZM17.4145 18.1311C17.054 18.5494 17.1008 19.1809 17.5191 19.5415C17.9374 19.9021 18.5689 19.8552 18.9294 19.4369L17.4145 18.1311ZM20.8611 8.14518C23.4566 11.5923 23.4566 16.3413 20.8611 19.7885L22.4588 20.9915C25.5907 16.832 25.5907 11.1016 22.4588 6.94216L20.8611 8.14518ZM17.4145 9.80254C19.4773 12.1956 19.4773 15.7381 17.4145 18.1311L18.9294 19.4369C21.639 16.2935 21.639 11.6402 18.9294 8.49674L17.4145 9.80254Z" fill="#33384B"/>
</svg>
