<svg width="24" height="24" viewBox="0 0 24 24" fill="none" xmlns="http://www.w3.org/2000/svg">
<path d="M3 12H7.19722C8.3235 12 9.37526 12.5629 10 13.5L10.8066 14.7099C10.9274 14.8912 11.1308 15 11.3486 15V15C11.7084 15 12 14.7084 12 14.3486V12V9.65139C12 9.29164 12.2916 9 12.6514 9V9C12.8692 9 13.0726 9.10885 13.1934 9.29006L14 10.5C14.6247 11.4371 15.6765 12 16.8028 12H21" stroke="#7D8A95" stroke-width="2" stroke-linecap="round" stroke-linejoin="round"/>
<path d="M21 12.6V11.4C21 9.15979 21 8.03969 20.564 7.18404C20.1805 6.43139 19.5686 5.81947 18.816 5.43597C17.9603 5 16.8402 5 14.6 5H9.4C7.15979 5 6.03969 5 5.18404 5.43597C4.43139 5.81947 3.81947 6.43139 3.43597 7.18404C3 8.03969 3 9.15979 3 11.4V12.6C3 14.8402 3 15.9603 3.43597 16.816C3.81947 17.5686 4.43139 18.1805 5.18404 18.564C6.03969 19 7.15979 19 9.4 19H14.6C16.8402 19 17.9603 19 18.816 18.564C19.5686 18.1805 20.1805 17.5686 20.564 16.816C21 15.9603 21 14.8402 21 12.6Z" stroke="#7D8A95" stroke-width="2" stroke-linecap="round" stroke-linejoin="round"/>
</svg>
