<svg width="27" height="26" viewBox="0 0 27 26" fill="none" xmlns="http://www.w3.org/2000/svg">
<path fill-rule="evenodd" clip-rule="evenodd" d="M6.08332 2.16675C5.78417 2.16675 5.54166 2.40926 5.54166 2.70841V23.2917C5.54166 23.5909 5.78417 23.8334 6.08332 23.8334H21.25C21.5492 23.8334 21.7917 23.5909 21.7917 23.2917V8.12508C21.7917 7.98143 21.7346 7.84363 21.633 7.74207L16.2163 2.3254C16.1148 2.22382 15.977 2.16675 15.8333 2.16675H6.08332ZM6.62499 22.7501V3.25008H15.2917V8.12508C15.2917 8.42424 15.5342 8.66675 15.8333 8.66675H20.7083V22.7501H6.62499ZM19.9423 7.58341L16.375 4.01611V7.58341H19.9423ZM9.87499 17.8751H10.9583V14.0834H11.8172L14.5256 16.7918L12.742 18.5755L13.5081 19.3415L15.2917 17.5578L17.0753 19.3415L17.8413 18.5755L16.0577 16.7918L17.8414 15.0081L17.0753 14.2421L15.2917 16.0258L13.3388 14.073C14.4351 13.9656 15.2917 13.0412 15.2917 11.9167C15.2917 10.7202 14.3216 9.75008 13.125 9.75008H10.4167C10.1175 9.75008 9.87499 9.99259 9.87499 10.2917V17.8751ZM13.125 13.0001H10.9583V10.8334H13.125C13.7233 10.8334 14.2083 11.3184 14.2083 11.9167C14.2083 12.5151 13.7233 13.0001 13.125 13.0001Z" fill="currentColor"/>
</svg>
