<svg width="19" height="19" viewBox="0 0 19 19" fill="none" xmlns="http://www.w3.org/2000/svg">
<g clip-path="url(#clip0_3581_407)">
<path d="M17.1615 4.66599C16.9635 4.63638 16.7826 4.53689 16.6516 4.38553C16.5206 4.23416 16.4481 4.0409 16.4472 3.84071V3.51316H16.5376C16.7003 3.51329 16.8593 3.46462 16.9941 3.37344C17.1288 3.28226 17.2331 3.15277 17.2935 3.00169C17.3538 2.85061 17.3675 2.6849 17.3327 2.52597C17.2979 2.36704 17.2163 2.2222 17.0983 2.11016V0.818284C17.098 0.602503 17.0122 0.395632 16.8596 0.243052C16.7071 0.0904722 16.5002 0.00464345 16.2844 0.00439453H12.848C12.6322 0.00464345 12.4253 0.0904722 12.2728 0.243052C12.1202 0.395632 12.0343 0.602503 12.0341 0.818284V2.11016C11.9161 2.2222 11.8345 2.36704 11.7997 2.52597C11.7649 2.68489 11.7786 2.8506 11.839 3.00167C11.8994 3.15274 12.0036 3.28223 12.1384 3.37341C12.2731 3.46459 12.4321 3.51327 12.5948 3.51316H12.6852V3.84071C12.6843 4.0409 12.6118 4.23415 12.4808 4.38552C12.3497 4.53689 12.1689 4.63637 11.9709 4.66599C11.5948 4.72085 11.2411 4.87848 10.9489 5.12152V3.96532C10.9484 3.50978 10.7672 3.07305 10.4451 2.75094C10.123 2.42882 9.68624 2.24763 9.2307 2.24711H2.14082C1.68528 2.24763 1.24855 2.42882 0.926431 2.75094C0.604316 3.07305 0.423124 3.50978 0.422607 3.96532L0.422607 16.8067C0.423124 17.2622 0.604316 17.699 0.926431 18.0211C1.24855 18.3432 1.68528 18.5244 2.14082 18.5249H9.2307C9.51325 18.5242 9.79131 18.4542 10.0404 18.3208C10.2896 18.1875 10.5021 17.9951 10.6594 17.7603C10.8542 17.9993 11.0997 18.1919 11.3781 18.3241C11.6566 18.4563 11.961 18.5249 12.2692 18.5249H16.8591C16.878 18.5255 16.8969 18.5258 16.9157 18.5258C18.0028 18.5257 18.9063 17.6091 18.943 16.4536C18.9431 16.4507 18.9431 16.4478 18.9431 16.445V6.72444C18.9409 6.22512 18.76 5.74309 18.4332 5.36554C18.1064 4.98799 17.6553 4.73984 17.1615 4.66599ZM10.4063 5.80554C10.2638 6.0909 10.1895 6.40547 10.1893 6.72444V16.445C10.1892 16.7067 10.2388 16.9662 10.3355 17.2094C10.2523 17.4357 10.1019 17.6311 9.90437 17.7692C9.70685 17.9074 9.47175 17.9818 9.2307 17.9823H2.14082C1.82913 17.982 1.53032 17.858 1.30992 17.6376C1.08953 17.4172 0.965555 17.1184 0.9652 16.8067V3.96532C0.965555 3.65364 1.08953 3.35482 1.30992 3.13443C1.53032 2.91403 1.82913 2.79006 2.14082 2.78971H9.2307C9.54239 2.79006 9.8412 2.91403 10.0616 3.13443C10.282 3.35482 10.406 3.65364 10.4063 3.96532V5.80554ZM16.0131 0.546987H16.2844C16.3563 0.547064 16.4253 0.575672 16.4762 0.626533C16.527 0.677394 16.5556 0.746355 16.5557 0.818284V1.88585C16.5497 1.88571 16.5437 1.88538 16.5376 1.88538H16.0131V0.546987ZM14.8375 0.546987H15.4705V1.88538H14.8375V0.546987ZM13.6619 0.546987H14.2949V1.88538H13.6619V0.546987ZM12.5767 0.818284C12.5768 0.746355 12.6054 0.677394 12.6562 0.626533C12.7071 0.575672 12.7761 0.547064 12.848 0.546987H13.1193V1.88538H12.5948C12.5887 1.88538 12.5827 1.88575 12.5767 1.88585V0.818284ZM12.5948 2.97057C12.5228 2.97057 12.4538 2.94199 12.4029 2.89111C12.3521 2.84023 12.3235 2.77123 12.3235 2.69927C12.3235 2.62732 12.3521 2.55832 12.4029 2.50744C12.4538 2.45656 12.5228 2.42798 12.5948 2.42798H16.5376C16.6096 2.42798 16.6786 2.45656 16.7295 2.50744C16.7803 2.55832 16.8089 2.62732 16.8089 2.69927C16.8089 2.77123 16.7803 2.84023 16.7295 2.89111C16.6786 2.94199 16.6096 2.97057 16.5376 2.97057H12.5948ZM18.4005 16.4405C18.3711 17.301 17.7102 17.9832 16.9156 17.9831C16.901 17.9831 16.8863 17.9829 16.8717 17.9825C16.8689 17.9824 16.866 17.9823 16.8632 17.9823H12.2692C11.8616 17.9818 11.4709 17.8197 11.1827 17.5315C10.8945 17.2433 10.7323 16.8525 10.7319 16.445V14.7991H18.4005V16.4405ZM18.4005 14.2565H10.7319V8.25181H18.4005V14.2565ZM18.4005 7.70921H10.7319V6.72444C10.7335 6.35539 10.8672 5.99911 11.1088 5.72006C11.3503 5.441 11.6837 5.2576 12.0487 5.20301C12.3755 5.15412 12.6741 4.98989 12.8903 4.74003C13.1066 4.49016 13.2263 4.17116 13.2278 3.84071V3.51316H15.9046V3.84071C15.9061 4.17116 16.0258 4.49017 16.2421 4.74004C16.4584 4.9899 16.7569 5.15413 17.0837 5.20301C17.4487 5.2576 17.7821 5.44101 18.0236 5.72007C18.2652 5.99912 18.3989 6.35539 18.4005 6.72444V7.70921ZM3.56965 3.89298C3.30136 3.89298 3.0391 3.97253 2.81603 4.12159C2.59295 4.27064 2.41909 4.48249 2.31642 4.73036C2.21375 4.97822 2.18689 5.25096 2.23923 5.5141C2.29157 5.77723 2.42076 6.01893 2.61047 6.20864C2.80018 6.39834 3.04188 6.52754 3.30501 6.57988C3.56814 6.63222 3.84089 6.60535 4.08875 6.50269C4.33662 6.40002 4.54847 6.22615 4.69752 6.00308C4.84657 5.78001 4.92613 5.51775 4.92613 5.24946C4.92573 4.88982 4.78268 4.54503 4.52838 4.29073C4.27408 4.03642 3.92929 3.89338 3.56965 3.89298ZM3.56965 6.06335C3.43216 6.06338 3.29691 6.02857 3.17652 5.96217C3.05613 5.89578 2.95453 5.79996 2.8812 5.68366C2.80787 5.56737 2.7652 5.43439 2.75717 5.29714C2.74914 5.15989 2.77602 5.02285 2.8353 4.8988L3.92031 5.98384C3.81086 6.03631 3.69102 6.06349 3.56965 6.06335ZM4.30399 5.60016L3.21899 4.51511C3.37084 4.44255 3.54146 4.41887 3.70734 4.44731C3.87321 4.47576 4.02619 4.55494 4.14519 4.67394C4.2642 4.79295 4.34337 4.94593 4.37181 5.11181C4.40025 5.27769 4.37656 5.4483 4.30399 5.60016ZM3.56965 7.29323C3.30136 7.29323 3.0391 7.37278 2.81603 7.52183C2.59295 7.67089 2.41909 7.88274 2.31642 8.13061C2.21375 8.37847 2.18689 8.65121 2.23923 8.91435C2.29157 9.17748 2.42076 9.41918 2.61047 9.60889C2.80018 9.79859 3.04188 9.92779 3.30501 9.98013C3.56814 10.0325 3.84089 10.0056 4.08875 9.90294C4.33662 9.80027 4.54847 9.6264 4.69752 9.40333C4.84657 9.18026 4.92613 8.918 4.92613 8.64971C4.92573 8.29007 4.78268 7.94528 4.52838 7.69098C4.27408 7.43667 3.92929 7.29363 3.56965 7.29323ZM3.56965 9.4636C3.43216 9.46362 3.29691 9.42881 3.17652 9.36242C3.05613 9.29602 2.95453 9.20021 2.8812 9.08391C2.80787 8.96762 2.7652 8.83464 2.75717 8.69739C2.74914 8.56014 2.77602 8.4231 2.8353 8.29905L3.92031 9.38409C3.81086 9.43656 3.69102 9.46374 3.56965 9.4636ZM4.30399 9.0004L3.21899 7.91536C3.37084 7.8428 3.54146 7.81912 3.70734 7.84756C3.87321 7.87601 4.02619 7.95519 4.14519 8.07419C4.2642 8.1932 4.34337 8.34618 4.37181 8.51206C4.40025 8.67794 4.37656 8.84855 4.30399 9.0004ZM3.56965 10.6935C3.30136 10.6935 3.0391 10.773 2.81603 10.9221C2.59295 11.0711 2.41909 11.283 2.31642 11.5309C2.21375 11.7787 2.18689 12.0515 2.23923 12.3146C2.29157 12.5777 2.42076 12.8194 2.61047 13.0091C2.80018 13.1988 3.04188 13.328 3.30501 13.3804C3.56814 13.4327 3.84089 13.4059 4.08875 13.3032C4.33662 13.2005 4.54847 13.0267 4.69752 12.8036C4.84657 12.5805 4.92613 12.3182 4.92613 12.05C4.92573 11.6903 4.78268 11.3455 4.52838 11.0912C4.27408 10.8369 3.92929 10.6939 3.56965 10.6935ZM3.56965 12.8638C3.43216 12.8639 3.29691 12.8291 3.17652 12.7627C3.05613 12.6963 2.95453 12.6005 2.8812 12.4842C2.80787 12.3679 2.7652 12.2349 2.75717 12.0976C2.74914 11.9604 2.77602 11.8233 2.8353 11.6993L3.92031 12.7843C3.81086 12.8368 3.69102 12.864 3.56965 12.8638ZM4.30399 12.4007L3.21899 11.3156C3.37084 11.2431 3.54146 11.2194 3.70734 11.2478C3.87321 11.2763 4.02619 11.3554 4.14519 11.4744C4.2642 11.5935 4.34337 11.7464 4.37181 11.9123C4.40025 12.0782 4.37656 12.2488 4.30399 12.4007ZM3.56965 14.0937C3.30136 14.0937 3.0391 14.1733 2.81603 14.3223C2.59295 14.4714 2.41909 14.6832 2.31642 14.9311C2.21375 15.179 2.18689 15.4517 2.23923 15.7148C2.29157 15.978 2.42076 16.2197 2.61047 16.4094C2.80018 16.5991 3.04188 16.7283 3.30501 16.7806C3.56814 16.833 3.84089 16.8061 4.08875 16.7034C4.33662 16.6008 4.54847 16.4269 4.69752 16.2038C4.84657 15.9808 4.92613 15.7185 4.92613 15.4502C4.92573 15.0906 4.78268 14.7458 4.52838 14.4915C4.27408 14.2372 3.92929 14.0941 3.56965 14.0937ZM3.56965 16.2641C3.43216 16.2641 3.29691 16.2293 3.17652 16.1629C3.05613 16.0965 2.95453 16.0007 2.8812 15.8844C2.80787 15.7681 2.7652 15.6351 2.75717 15.4979C2.74914 15.3606 2.77602 15.2236 2.8353 15.0995L3.92031 16.1846C3.81086 16.2371 3.69102 16.2642 3.56965 16.2641ZM4.30399 15.8009L3.21899 14.7159C3.37084 14.6433 3.54146 14.6196 3.70734 14.6481C3.87321 14.6765 4.02619 14.7557 4.14519 14.8747C4.2642 14.9937 4.34337 15.1467 4.37181 15.3126C4.40025 15.4784 4.37656 15.6491 4.30399 15.8009ZM7.80187 3.89298C7.53359 3.89298 7.27132 3.97253 7.04825 4.12159C6.82518 4.27064 6.65131 4.48249 6.54865 4.73036C6.44598 4.97822 6.41911 5.25096 6.47145 5.5141C6.52379 5.77723 6.65299 6.01893 6.84269 6.20864C7.0324 6.39834 7.2741 6.52754 7.53724 6.57988C7.80037 6.63222 8.07311 6.60535 8.32098 6.50269C8.56884 6.40002 8.78069 6.22615 8.92975 6.00308C9.0788 5.78001 9.15835 5.51775 9.15835 5.24946C9.15795 4.88982 9.01491 4.54503 8.76061 4.29073C8.5063 4.03642 8.16151 3.89338 7.80187 3.89298ZM7.80187 6.06335C7.66439 6.06338 7.52914 6.02857 7.40875 5.96217C7.28836 5.89578 7.18676 5.79996 7.11342 5.68366C7.04009 5.56737 6.99742 5.43439 6.98939 5.29714C6.98137 5.15989 7.00825 5.02285 7.06753 4.8988L8.15253 5.98384C8.04309 6.03631 7.92324 6.06349 7.80187 6.06335ZM8.53622 5.60016L7.45121 4.51511C7.60307 4.44255 7.77368 4.41887 7.93956 4.44731C8.10544 4.47576 8.25841 4.55494 8.37742 4.67394C8.49642 4.79295 8.5756 4.94593 8.60404 5.11181C8.63248 5.27769 8.60878 5.4483 8.53622 5.60016ZM7.80187 7.29323C7.53359 7.29323 7.27132 7.37278 7.04825 7.52183C6.82518 7.67089 6.65131 7.88274 6.54865 8.13061C6.44598 8.37847 6.41911 8.65121 6.47145 8.91435C6.52379 9.17748 6.65299 9.41918 6.84269 9.60889C7.0324 9.79859 7.2741 9.92779 7.53724 9.98013C7.80037 10.0325 8.07311 10.0056 8.32098 9.90294C8.56884 9.80027 8.78069 9.6264 8.92975 9.40333C9.0788 9.18026 9.15835 8.918 9.15835 8.64971C9.15795 8.29007 9.01491 7.94528 8.76061 7.69098C8.5063 7.43667 8.16151 7.29363 7.80187 7.29323ZM7.80187 9.4636C7.66439 9.46362 7.52914 9.42881 7.40875 9.36242C7.28836 9.29602 7.18676 9.20021 7.11342 9.08391C7.04009 8.96762 6.99742 8.83464 6.98939 8.69739C6.98137 8.56014 7.00825 8.4231 7.06753 8.29905L8.15253 9.38409C8.04309 9.43656 7.92324 9.46374 7.80187 9.4636ZM8.53622 9.0004L7.45121 7.91536C7.60307 7.8428 7.77368 7.81912 7.93956 7.84756C8.10544 7.87601 8.25841 7.95519 8.37742 8.07419C8.49642 8.1932 8.5756 8.34618 8.60404 8.51206C8.63248 8.67794 8.60878 8.84855 8.53622 9.0004ZM7.80187 10.6935C7.53359 10.6935 7.27132 10.773 7.04825 10.9221C6.82518 11.0711 6.65131 11.283 6.54865 11.5309C6.44598 11.7787 6.41911 12.0515 6.47145 12.3146C6.52379 12.5777 6.65299 12.8194 6.84269 13.0091C7.0324 13.1988 7.2741 13.328 7.53724 13.3804C7.80037 13.4327 8.07311 13.4059 8.32098 13.3032C8.56884 13.2005 8.78069 13.0267 8.92975 12.8036C9.0788 12.5805 9.15835 12.3182 9.15835 12.05C9.15795 11.6903 9.01491 11.3455 8.76061 11.0912C8.5063 10.8369 8.16151 10.6939 7.80187 10.6935ZM7.80187 12.8638C7.66439 12.8639 7.52914 12.8291 7.40875 12.7627C7.28836 12.6963 7.18676 12.6005 7.11342 12.4842C7.04009 12.3679 6.99742 12.2349 6.98939 12.0976C6.98137 11.9604 7.00825 11.8233 7.06753 11.6993L8.15253 12.7843C8.04309 12.8368 7.92324 12.864 7.80187 12.8638ZM8.53622 12.4007L7.45121 11.3156C7.60307 11.2431 7.77368 11.2194 7.93956 11.2478C8.10544 11.2763 8.25841 11.3554 8.37742 11.4744C8.49642 11.5935 8.5756 11.7464 8.60404 11.9123C8.63248 12.0782 8.60878 12.2488 8.53622 12.4007ZM7.80187 14.0937C7.53359 14.0937 7.27132 14.1733 7.04825 14.3223C6.82518 14.4714 6.65131 14.6832 6.54865 14.9311C6.44598 15.179 6.41911 15.4517 6.47145 15.7148C6.52379 15.978 6.65299 16.2197 6.84269 16.4094C7.0324 16.5991 7.2741 16.7283 7.53724 16.7806C7.80037 16.833 8.07311 16.8061 8.32098 16.7034C8.56884 16.6008 8.78069 16.4269 8.92975 16.2038C9.0788 15.9808 9.15835 15.7185 9.15835 15.4502C9.15795 15.0906 9.01491 14.7458 8.76061 14.4915C8.5063 14.2372 8.16151 14.0941 7.80187 14.0937ZM7.80187 16.2641C7.66439 16.2641 7.52914 16.2293 7.40875 16.1629C7.28836 16.0965 7.18676 16.0007 7.11342 15.8844C7.04009 15.7681 6.99742 15.6351 6.98939 15.4979C6.98137 15.3606 7.00825 15.2236 7.06753 15.0995L8.15253 16.1846C8.04309 16.2371 7.92324 16.2642 7.80187 16.2641ZM8.53622 15.8009L7.45121 14.7159C7.60307 14.6433 7.77368 14.6196 7.93956 14.6481C8.10544 14.6765 8.25841 14.7557 8.37742 14.8747C8.49642 14.9937 8.5756 15.1467 8.60404 15.3126C8.63248 15.4784 8.60878 15.6491 8.53622 15.8009Z" fill="currentColor"/>
</g>
<defs>
<clipPath id="clip0_3581_407">
<rect width="18.5205" height="18.5205" fill="white" transform="translate(0.422852 0.00512695)"/>
</clipPath>
</defs>
</svg>
