<svg width="37" height="37" viewBox="0 0 37 37" fill="none" xmlns="http://www.w3.org/2000/svg">
<g clip-path="url(#clip0_2628_653)">
<path d="M33.5235 15.018C33.2723 14.7611 34.277 14.841 19.9782 14.841C19.9003 14.8409 19.8231 14.8567 19.7516 14.8875C19.68 14.9183 19.6155 14.9635 19.562 15.0201C19.5085 15.0768 19.4672 15.1439 19.4406 15.2171C19.414 15.2904 19.4027 15.3683 19.4074 15.4461L20.4577 34.3741C20.4898 34.9576 20.7445 35.5066 21.1693 35.908C21.594 36.3094 22.1565 36.5326 22.7409 36.5318H30.3441C30.9285 36.5326 31.491 36.3094 31.9158 35.908C32.3405 35.5066 32.5952 34.9576 32.6273 34.3741C33.7689 13.8193 33.7689 15.2863 33.5235 15.018ZM31.4857 34.3113C31.4696 34.6031 31.3423 34.8776 31.1299 35.0783C30.9175 35.279 30.6363 35.3906 30.3441 35.3901H22.7409C22.4487 35.3906 22.1675 35.279 21.9551 35.0783C21.7427 34.8776 21.6154 34.6031 21.5993 34.3113L20.5833 15.9827H32.5017L31.4857 34.3113Z" fill="#231F20"/>
<path d="M23.2432 33.6777H29.8418C29.9931 33.6777 30.1383 33.6176 30.2454 33.5105C30.3524 33.4035 30.4126 33.2583 30.4126 33.1069C31.0633 21.2797 31.0975 22.096 30.8578 21.8391C30.6181 21.5823 31.0747 21.6907 22.6439 21.6907C22.4925 21.6907 22.3473 21.7509 22.2402 21.8579C22.1332 21.965 22.0731 22.1101 22.0731 22.2615L22.6439 33.1069C22.6438 33.1843 22.6594 33.2609 22.6899 33.3321C22.7203 33.4033 22.7649 33.4675 22.821 33.5209C22.8771 33.5743 22.9434 33.6158 23.016 33.6427C23.0886 33.6697 23.1659 33.6816 23.2432 33.6777ZM29.8361 22.8323L29.2995 32.5361H23.7855L23.2489 22.8323H29.8361ZM17.695 10.8454C17.695 7.626 14.2187 5.41126 13.1285 4.79479V4.56647C13.2799 4.56647 13.4251 4.50633 13.5321 4.39928C13.6392 4.29223 13.6993 4.14705 13.6993 3.99566V0.570808C13.6993 0.419421 13.6392 0.274233 13.5321 0.167186C13.4251 0.0601386 13.2799 0 13.1285 0L7.4204 0C7.26902 0 7.12383 0.0601386 7.01678 0.167186C6.90973 0.274233 6.8496 0.419421 6.8496 0.570808V3.99566C6.8496 4.14705 6.90973 4.29223 7.01678 4.39928C7.12383 4.50633 7.26902 4.56647 7.4204 4.56647V4.79479C6.33016 5.41126 2.85394 7.64883 2.85394 10.8454C2.85394 13.2485 3.26492 14.1332 3.59599 14.841C4.28667 16.3251 3.97843 16.9416 3.59599 17.6151C2.6142 19.2933 2.85394 18.2259 2.85394 33.6777C2.85394 34.4346 3.15463 35.1606 3.68987 35.6958C4.2251 36.231 4.95104 36.5317 5.70798 36.5317H14.8409C15.5979 36.5317 16.3238 36.231 16.859 35.6958C17.3943 35.1606 17.695 34.4346 17.695 33.6777V19.9783C17.695 18.1346 16.5533 17.4325 16.5533 16.5534C16.5533 14.5271 17.695 14.8924 17.695 10.8454ZM7.99121 1.14162H12.5577V3.42485H7.99121V1.14162ZM16.5533 29.1112H3.99555V21.1199H16.5533V29.1112ZM14.8409 35.3901H5.70798C5.25382 35.3901 4.81825 35.2097 4.49711 34.8886C4.17597 34.5674 3.99555 34.1319 3.99555 33.6777V30.2528H16.5533V33.6777C16.5533 34.1319 16.3729 34.5674 16.0518 34.8886C15.7306 35.2097 15.2951 35.3901 14.8409 35.3901ZM15.4117 16.5534C15.4117 17.8435 16.5533 18.5113 16.5533 19.9783H3.99555C3.99555 18.4542 5.13717 17.912 5.13717 16.5534C5.13717 14.0876 3.99555 14.7097 3.99555 10.8454C3.99555 7.82008 8.20241 5.66813 8.24808 5.6453C8.62481 5.45693 8.56202 5.13728 8.56202 4.56647H11.9869C11.9869 4.88612 11.8841 5.4398 12.3008 5.6453C12.3465 5.66813 16.5533 7.80866 16.5533 10.8454C16.5533 14.6013 15.4117 14.156 15.4117 16.5534Z" fill="#231F20"/>
</g>
<defs>
<clipPath id="clip0_2628_653">
<rect width="36.5317" height="36.5317" fill="white"/>
</clipPath>
</defs>
</svg>
