<svg width="51" height="51" viewBox="0 0 51 51" fill="none" xmlns="http://www.w3.org/2000/svg">
<rect x="0.5" y="0.5" width="50" height="50" rx="25" fill="#E9F0FF"/>
<path d="M16.5667 33.3169V31.0835H18.8V23.2668C18.8 21.7221 19.2653 20.3542 20.1958 19.1631C21.1264 17.9534 22.3361 17.1624 23.825 16.7902V16.0085C23.825 15.5432 23.9832 15.1524 24.2996 14.836C24.6346 14.501 25.0347 14.3335 25.5 14.3335C25.9653 14.3335 26.3561 14.501 26.6725 14.836C27.0075 15.1524 27.175 15.5432 27.175 16.0085V16.7902C28.6639 17.1624 29.8736 17.9534 30.8042 19.1631C31.7347 20.3542 32.2 21.7221 32.2 23.2668V31.0835H34.4333V33.3169H16.5667ZM25.5 36.6669C24.8858 36.6669 24.3554 36.4528 23.9087 36.0248C23.4807 35.5781 23.2667 35.0477 23.2667 34.4335H27.7333C27.7333 35.0477 27.51 35.5781 27.0633 36.0248C26.6353 36.4528 26.1142 36.6669 25.5 36.6669ZM21.0333 31.0835H29.9667V23.2668C29.9667 22.0385 29.5293 20.987 28.6546 20.1123C27.7799 19.2375 26.7283 18.8002 25.5 18.8002C24.2717 18.8002 23.2201 19.2375 22.3454 20.1123C21.4707 20.987 21.0333 22.0385 21.0333 23.2668V31.0835Z" fill="#2A88F1"/>
</svg>
