<svg width="40" height="40" viewBox="0 0 40 40" fill="none" xmlns="http://www.w3.org/2000/svg">
<path d="M33.6558 18.3034L14.6646 8.93845C14.5048 8.85967 14.3248 8.83153 14.1486 8.85779C13.9724 8.88404 13.8085 8.96346 13.6786 9.08541C13.5488 9.20735 13.4592 9.36603 13.422 9.54023C13.3847 9.71443 13.4015 9.89585 13.4701 10.0602L17.4608 19.6219C17.5387 19.8084 17.5495 20.0161 17.4916 20.2097L14.5223 30.1362C14.4712 30.3068 14.4735 30.489 14.5287 30.6584C14.584 30.8277 14.6896 30.9762 14.8315 31.0839C14.9734 31.1916 15.1448 31.2534 15.3227 31.2611C15.5007 31.2688 15.6768 31.222 15.8275 31.127L33.7357 19.8282C33.8673 19.7452 33.9743 19.6286 34.0458 19.4905C34.1174 19.3524 34.1508 19.1977 34.1426 19.0424C34.1345 18.887 34.0851 18.7367 33.9995 18.6068C33.914 18.4769 33.7953 18.3722 33.6558 18.3034Z" stroke="#333333" stroke-width="1.3125" stroke-linecap="round" stroke-linejoin="round"/>
<path d="M17.581 19.9108L24.5715 19.5445" stroke="#333333" stroke-width="1.3125" stroke-linecap="round" stroke-linejoin="round"/>
</svg>
