<svg width="28" height="28" viewBox="0 0 28 28" fill="none" xmlns="http://www.w3.org/2000/svg">
<path d="M11.6666 12.8333V12.8333C11.6666 13.6082 11.6666 13.9956 11.7465 14.3146C11.9856 15.2691 12.7309 16.0143 13.6853 16.2534C14.0044 16.3333 14.3918 16.3333 15.1666 16.3333V16.3333C15.9414 16.3333 16.3289 16.3333 16.6479 16.2534C17.6024 16.0143 18.3476 15.2691 18.5867 14.3146C18.6666 13.9956 18.6666 13.6082 18.6666 12.8333V12.8333" stroke="#33384B" stroke-width="2" stroke-linecap="round" stroke-linejoin="round"/>
<path d="M15.1666 25.6667L15.1666 7" stroke="#33384B" stroke-width="2" stroke-linecap="round" stroke-linejoin="round"/>
<path d="M11.6666 9.33334V9.33334C13.5996 9.33334 15.1666 10.9003 15.1666 12.8333V14" stroke="#33384B" stroke-width="2" stroke-linecap="round" stroke-linejoin="round"/>
<path d="M19.8713 25.6667V20.691C19.8713 19.1942 20.4992 17.7661 21.6023 16.7544V16.7544C22.7053 15.7427 23.3333 14.3146 23.3333 12.8178V10.5C23.3333 5.98969 19.677 2.33334 15.1666 2.33334V2.33334C10.6563 2.33334 6.99996 5.98969 6.99996 10.5V11.0024C6.99996 11.4393 6.89825 11.8701 6.70287 12.2609L5.31154 15.0435C5.01525 15.6361 5.44616 16.3334 6.10871 16.3334V16.3334C6.60093 16.3334 6.99996 16.7324 6.99996 17.2246V18.0834C6.99996 19.0499 7.78346 19.8334 8.74996 19.8334V19.8334C9.71646 19.8334 10.5 20.6169 10.5 21.5834V25.6667" stroke="#33384B" stroke-width="2" stroke-linecap="round" stroke-linejoin="round"/>
</svg>
