<svg width="28" height="28" viewBox="0 0 28 28" fill="none" xmlns="http://www.w3.org/2000/svg">
<path d="M11.6666 9.625V19.25C11.6666 19.3274 11.6666 19.3661 11.6661 19.3988C11.6308 21.5567 9.88998 23.2975 7.73207 23.3328C7.69935 23.3333 7.66067 23.3333 7.58329 23.3333C7.50592 23.3333 7.46724 23.3333 7.43451 23.3328C5.27661 23.2975 3.53581 21.5567 3.5005 19.3988C3.49996 19.3661 3.49996 19.3274 3.49996 19.25V13.7C3.49996 12.5267 3.49996 11.94 3.65374 11.4015C3.78995 10.9246 4.01366 10.4772 4.31346 10.0821C4.65197 9.636 5.1213 9.284 6.05996 8.58L7.46663 7.525C7.921 7.18422 8.47365 7 9.04163 7C10.4914 7 11.6666 8.17525 11.6666 9.625Z" stroke="#33384B" stroke-width="2" stroke-linecap="round" stroke-linejoin="round"/>
<path d="M16.3334 10.2998V19.25C16.3334 19.3274 16.3334 19.3661 16.3339 19.3988C16.3692 21.5567 18.11 23.2975 20.2679 23.3328C20.3006 23.3333 20.3393 23.3333 20.4167 23.3333C20.4941 23.3333 20.5328 23.3333 20.5655 23.3328C22.7234 23.2975 24.4642 21.5567 24.4995 19.3988C24.5 19.3661 24.5 19.3274 24.5 19.25V12.9749C24.5 12.1702 24.5 11.7679 24.4251 11.3862C24.3226 10.8642 24.117 10.3679 23.8204 9.92637C23.6035 9.60348 23.319 9.31899 22.75 8.75L21.9665 7.9665C21.3477 7.34766 20.5084 7 19.6332 7C17.8108 7 16.3334 8.47738 16.3334 10.2998Z" stroke="#33384B" stroke-width="2" stroke-linecap="round" stroke-linejoin="round"/>
<path d="M14 2.33334V9.33334C14 11.2663 15.567 12.8333 17.5 12.8333V12.8333C19.433 12.8333 21 14.4003 21 16.3333V16.9167" stroke="#33384B" stroke-width="2" stroke-linecap="round" stroke-linejoin="round"/>
<path d="M14 2.33334V9.33334C14 11.2663 12.433 12.8333 10.5 12.8333V12.8333C8.567 12.8333 7 14.4003 7 16.3333V16.9167" stroke="#33384B" stroke-width="2" stroke-linecap="round" stroke-linejoin="round"/>
</svg>
