<svg width="47" height="62" viewBox="0 0 47 62" fill="none" xmlns="http://www.w3.org/2000/svg">
<g clip-path="url(#clip0_2743_2762)">
<path d="M11.0612 12.8737C14.6162 12.8737 17.4979 9.99158 17.4979 6.43697C17.4979 2.8821 14.6162 0 11.0612 0C7.50624 0 4.62427 2.8821 4.62427 6.43697C4.62427 9.99158 7.50624 12.8737 11.0612 12.8737Z" fill="#333333"/>
<path d="M6.17086 20.7038C5.0132 13.2948 15.6967 11.0456 17.4167 18.62L20.3274 33.1307L31.1865 33.1532C34.3568 33.1532 36.0054 35.6894 36.0054 38.0356V57.7647C36.0054 62.5554 29.1835 62.5329 29.1835 57.6789V42.3247H15.3142C12.0805 42.3247 10.0515 40.1055 9.54421 37.5692L6.17086 20.7038Z" fill="#333333"/>
<path d="M24.098 43.6211C27.701 43.6211 27.6842 48.9507 24.1477 48.9507H14.188C9.34609 48.9507 4.517 45.3123 3.25377 39.6894L0.150982 24.6068C-0.477858 21.1824 4.45085 20.0423 5.17852 23.5484L8.12096 37.9778C8.94521 41.6554 11.6717 43.6211 14.9689 43.6211H24.098ZM37.5716 10.7853L42.3621 8.46375C43.0526 8.15296 42.6037 7.15169 41.8785 7.47292L37.8082 9.30599V4.48987C37.8082 3.73362 36.6655 3.76829 36.6655 4.48987L36.6827 10.2588C36.6827 10.6902 37.1488 11.0009 37.5716 10.7853Z" fill="#333333"/>
<path d="M37.5904 19.0889C42.7874 19.0889 47.0002 14.8759 47.0002 9.67883C47.0002 4.48194 42.7874 0.26886 37.5904 0.26886C32.3934 0.26886 28.1803 4.48194 28.1803 9.67883C28.1803 14.8759 32.3934 19.0889 37.5904 19.0889Z" fill="#333333"/>
<path d="M37.5904 17.4907C41.9047 17.4907 45.4022 13.993 45.4022 9.67882C45.4022 5.36439 41.9047 1.86694 37.5904 1.86694C33.2763 1.86694 29.7786 5.36439 29.7786 9.67882C29.7786 13.993 33.2763 17.4907 37.5904 17.4907Z" fill="white"/>
<path d="M37.5717 10.7853L42.3621 8.46375C43.0526 8.15296 42.6037 7.15169 41.8786 7.47292L37.8082 9.30599V4.48987C37.8082 3.73362 36.6655 3.76829 36.6655 4.48987L36.6827 10.2588C36.6827 10.6902 37.1488 11.0009 37.5717 10.7853Z" fill="#333333"/>
</g>
<defs>
<clipPath id="clip0_2743_2762">
<rect width="46.9046" height="61.3387" fill="white" transform="translate(0.095459)"/>
</clipPath>
</defs>
</svg>
