<svg width="48" height="48" viewBox="0 0 48 48" fill="none" xmlns="http://www.w3.org/2000/svg">
<path d="M12.1266 24.3443L9.12661 28.833C9.05109 28.9459 9.00764 29.0772 9.00092 29.2129C8.9942 29.3486 9.02444 29.4835 9.08844 29.6033C9.15243 29.7231 9.24776 29.8233 9.36425 29.8932C9.48074 29.9631 9.61403 30 9.74986 30H12.7499C12.9488 30 13.1395 29.9209 13.2801 29.7803L15.3104 27.75H17.0721L15.0981 36.9638L10.2044 39.0638C10.0699 39.1214 9.95531 39.217 9.87456 39.339C9.79381 39.4609 9.75046 39.6038 9.74986 39.75V43.5C9.7499 43.6255 9.78142 43.749 9.84154 43.8591C9.90166 43.9693 9.98846 44.0626 10.094 44.1305C10.1995 44.1984 10.3204 44.2387 10.4455 44.2478C10.5707 44.2569 10.6961 44.2345 10.8104 44.1825L19.0604 40.4325C19.1593 40.3876 19.2472 40.3218 19.3182 40.2396C19.3892 40.1573 19.4414 40.0607 19.4714 39.9563L20.7081 35.625L24.9081 38.025L27.0591 43.044C27.1168 43.1794 27.2131 43.2948 27.3359 43.3759C27.4587 43.457 27.6027 43.5002 27.7499 43.5H31.4999C31.6225 43.5001 31.7433 43.4701 31.8517 43.4127C31.9601 43.3552 32.0527 43.2721 32.1215 43.1705C32.1902 43.069 32.233 42.9521 32.2461 42.8301C32.2592 42.7082 32.2422 42.5849 32.1966 42.471L29.1966 34.971C29.134 34.8128 29.0195 34.6806 28.8719 34.596L24.0644 31.8488L24.6336 27.8633L28.3769 28.4865C28.5527 28.5158 28.7333 28.4815 28.8861 28.3898L32.6361 26.1398C32.7466 26.0734 32.8381 25.9796 32.9018 25.8676C32.9656 25.7555 32.9993 25.6289 32.9999 25.5V22.5C32.9998 22.3673 32.9646 22.2369 32.8977 22.1222C32.8308 22.0076 32.7347 21.9127 32.6191 21.8474C32.5036 21.782 32.3728 21.7485 32.24 21.7502C32.1073 21.752 31.9774 21.7889 31.8636 21.8573L28.3626 23.9573L22.6311 22.8113C23.2736 22.4525 23.7808 21.893 24.0749 21.2184C24.3691 20.5439 24.4341 19.7916 24.2599 19.0766C24.0858 18.3616 23.682 17.7235 23.1106 17.2598C22.5391 16.7962 21.8315 16.5326 21.0959 16.5095C20.3604 16.4864 19.6376 16.7051 19.0382 17.1319C18.4388 17.5588 17.9958 18.1704 17.7771 18.873C17.5584 19.5756 17.576 20.3306 17.8273 21.0222C18.0786 21.7139 18.5497 22.3041 19.1684 22.7025L14.3249 23.25C13.9002 23.2577 13.4826 23.3599 13.1023 23.5492C12.7221 23.7385 12.3888 24.0101 12.1266 24.3443ZM19.1249 19.875C19.1249 19.5042 19.2348 19.1417 19.4409 18.8333C19.6469 18.525 19.9397 18.2847 20.2823 18.1427C20.6249 18.0008 21.0019 17.9637 21.3657 18.036C21.7294 18.1084 22.0635 18.287 22.3257 18.5492C22.5879 18.8114 22.7665 19.1455 22.8388 19.5092C22.9112 19.8729 22.8741 20.2499 22.7321 20.5925C22.5902 20.9352 22.3499 21.228 22.0416 21.434C21.7332 21.64 21.3707 21.75 20.9999 21.75C20.5026 21.75 20.0257 21.5525 19.674 21.2008C19.3224 20.8492 19.1249 20.3723 19.1249 19.875ZM20.9676 24.0083L28.3499 25.485C28.5329 25.5217 28.723 25.4888 28.8831 25.3928L31.4999 23.8245V25.0755L28.3499 26.9648L24.1221 26.2605C24.0236 26.2435 23.9226 26.2466 23.8252 26.2697C23.7279 26.2927 23.6363 26.3353 23.5559 26.3948C23.4751 26.4537 23.407 26.5282 23.3555 26.6138C23.304 26.6995 23.2701 26.7946 23.2559 26.8935L22.5059 32.1435C22.4846 32.2924 22.5085 32.4442 22.5746 32.5793C22.6406 32.7143 22.7458 32.8264 22.8764 32.901L27.8999 35.775L30.3921 42H28.2441L26.1891 37.2045C26.1248 37.0547 26.0134 36.9299 25.8719 36.849L20.6219 33.849C20.5231 33.7925 20.4129 33.7593 20.2994 33.7517C20.1859 33.7441 20.0722 33.7624 19.9669 33.8053C19.8615 33.8481 19.7673 33.9144 19.6913 33.999C19.6154 34.0836 19.5596 34.1844 19.5284 34.2938L18.1236 39.2108L11.2499 42.3353V40.2443L16.0454 38.1893C16.1556 38.142 16.253 38.069 16.3292 37.9763C16.4054 37.8837 16.4583 37.7741 16.4834 37.6568L18.7334 27.1568C18.7567 27.0474 18.7554 26.9343 18.7293 26.8255C18.7033 26.7168 18.6533 26.6152 18.583 26.5283C18.5127 26.4414 18.4239 26.3713 18.323 26.3231C18.2221 26.275 18.1117 26.25 17.9999 26.25H14.9999C14.801 26.2501 14.6102 26.3291 14.4696 26.4698L12.4394 28.5H11.1531L13.3911 25.149C13.6742 24.8972 14.0376 24.7542 14.4164 24.7455L20.9676 24.0083Z" fill="#333333"/>
<path d="M38.0308 4.5C36.9074 4.50064 35.7958 4.73044 34.7642 5.17534C33.7325 5.62024 32.8024 6.27088 32.0308 7.0875L30.7498 8.4195L29.4748 7.086C28.7032 6.26952 27.7731 5.61905 26.7415 5.1744C25.7098 4.72976 24.5982 4.50028 23.4748 4.5C22.35 4.501 21.2373 4.73167 20.2048 5.17789C19.1723 5.62411 18.2418 6.27647 17.4703 7.095C16.2357 8.40579 15.4194 10.0546 15.1256 11.8311C14.8317 13.6077 15.0736 15.4315 15.8203 17.07L17.1838 16.446C16.8651 15.7501 16.6547 15.0095 16.5598 14.25H23.2498C23.3623 14.25 23.4734 14.2248 23.5748 14.1761C23.6761 14.1274 23.7653 14.0566 23.8356 13.9688L26.0451 11.2072L29.3076 19.0387C29.3615 19.168 29.4506 19.2797 29.5648 19.3609C29.6789 19.4422 29.8135 19.4898 29.9533 19.4985C29.9691 19.4985 29.9841 19.4985 29.9998 19.4985C30.1317 19.4988 30.2614 19.4642 30.3757 19.3984C30.49 19.3326 30.5849 19.2377 30.6508 19.1235L33.4348 14.25H44.9316C44.743 15.8308 44.0488 17.3085 42.9523 18.4628L41.1306 20.364L30.7498 31.167L29.1321 29.481L28.0498 30.519L30.2091 32.769C30.2791 32.8419 30.3631 32.9 30.4561 32.9396C30.5491 32.9793 30.6491 32.9997 30.7502 32.9997C30.8513 32.9997 30.9514 32.9793 31.0443 32.9396C31.1373 32.9 31.2213 32.8419 31.2913 32.769L42.2121 21.4028L41.6721 20.883L42.2128 21.402L44.0346 19.5C45.6139 17.8203 46.4931 15.6015 46.4931 13.296C46.4931 10.9905 45.6139 8.7717 44.0346 7.092C43.2631 6.27393 42.3326 5.62207 41.3002 5.17636C40.2679 4.73065 39.1553 4.50049 38.0308 4.5ZM32.9998 12.75C32.8679 12.7497 32.7383 12.7843 32.624 12.8501C32.5097 12.9159 32.4148 13.0108 32.3488 13.125L30.1056 17.0505L26.9421 9.46125C26.8918 9.34166 26.8113 9.23718 26.7085 9.158C26.6057 9.07883 26.4841 9.02767 26.3557 9.00954C26.2272 8.9914 26.0962 9.0069 25.9755 9.05453C25.8548 9.10215 25.7486 9.18027 25.6671 9.28125L22.8898 12.75H16.5238C16.6424 11.0202 17.3601 9.38571 18.5533 8.12775C19.1849 7.45708 19.9468 6.92243 20.7923 6.55656C21.6378 6.19069 22.5491 6.0013 23.4703 6C24.3913 6.00118 25.3024 6.19021 26.1479 6.55555C26.9933 6.92088 27.7553 7.45483 28.3873 8.12475L30.2068 10.0215C30.2768 10.0946 30.3609 10.1527 30.454 10.1924C30.547 10.2321 30.6472 10.2526 30.7483 10.2526C30.8495 10.2526 30.9497 10.2321 31.0427 10.1924C31.1358 10.1527 31.2198 10.0946 31.2898 10.0215L33.1071 8.127C33.7395 7.45619 34.5022 6.92155 35.3484 6.55581C36.1947 6.19007 37.1067 6.00094 38.0286 6C38.9505 6.00141 39.8623 6.19091 40.7084 6.55689C41.5545 6.92288 42.317 7.45765 42.9493 8.1285C44.1431 9.38479 44.8595 11.0193 44.9743 12.7485L32.9998 12.75Z" fill="#333333"/>
<path d="M8.25 24H1.5V25.5H8.25V24Z" fill="#333333"/>
<path d="M13.5 33.75H7.5V35.25H13.5V33.75Z" fill="#333333"/>
<path d="M6 39H1.5V40.5H6V39Z" fill="#333333"/>
<path d="M4.5 30.75H1.5V32.25H4.5V30.75Z" fill="#333333"/>
</svg>
