<svg width="48" height="48" viewBox="0 0 48 48" fill="none" xmlns="http://www.w3.org/2000/svg">
<path d="M23.2041 5.46387C23.6483 5.27123 24.1452 5.24708 24.6025 5.3916L24.7959 5.46387C24.9556 5.53315 25.1402 5.65919 25.7148 6.14551L26.4346 6.76367C26.8602 7.13347 27.2322 7.46475 27.6377 7.73438L27.8135 7.8457C28.5037 8.26287 29.2704 8.53635 30.0664 8.65039L30.4102 8.68945C30.8258 8.7247 31.2423 8.702 31.6953 8.66504L32.1621 8.625C33.511 8.50741 33.9257 8.48848 34.1602 8.51953L34.252 8.53613C34.7244 8.64144 35.1398 8.91421 35.4248 9.2998L35.5391 9.47168C35.6275 9.6216 35.7027 9.83202 35.8818 10.5635L36.1006 11.4863C36.2276 12.0356 36.3345 12.5222 36.5039 12.9785L36.5811 13.1729C36.8943 13.9161 37.3536 14.5873 37.9307 15.1475L38.1846 15.3809C38.5003 15.6539 38.8508 15.8807 39.2393 16.1172L39.6396 16.3584C40.7999 17.0561 41.1469 17.2853 41.3184 17.4482L41.3828 17.5156C41.7032 17.8785 41.8798 18.3428 41.8838 18.8223L41.875 19.0283C41.8585 19.2017 41.796 19.4167 41.5107 20.1143L41.1445 20.9893C40.9244 21.5084 40.7249 21.9647 40.5938 22.4336L40.542 22.6357C40.3586 23.4211 40.3361 24.2341 40.4736 25.0264L40.542 25.3643C40.6369 25.7706 40.7867 26.1605 40.9619 26.5801L41.1445 27.0107C41.6731 28.2571 41.8193 28.6463 41.8623 28.8789L41.875 28.9717C41.9208 29.4535 41.7903 29.9331 41.5117 30.3232L41.3828 30.4844C41.2676 30.6149 41.091 30.7518 40.4502 31.1484L39.6396 31.6416C39.1566 31.9321 38.7273 32.1841 38.3457 32.4863L38.1846 32.6191C37.5744 33.1469 37.0781 33.7916 36.7236 34.5137L36.5811 34.8271C36.4191 35.2115 36.3109 35.6144 36.2061 36.0566L36.1006 36.5137C35.7957 37.8326 35.6849 38.2329 35.583 38.4463L35.5391 38.5283C35.2929 38.9453 34.9051 39.2563 34.4502 39.4082L34.252 39.4639C34.082 39.5017 33.8582 39.5089 33.1064 39.4531L32.1621 39.375C31.6005 39.326 31.1045 39.2777 30.6182 39.2979L30.4102 39.3105C29.6064 39.3788 28.8254 39.6086 28.1143 39.9844L27.8135 40.1543C27.4566 40.37 27.1328 40.6326 26.7881 40.9287L26.4346 41.2363C25.412 42.1246 25.0868 42.3825 24.8789 42.4951L24.7959 42.5361C24.3517 42.7288 23.8548 42.7529 23.3975 42.6084L23.2041 42.5361C23.0444 42.4668 22.8598 42.3408 22.2852 41.8545L21.5654 41.2363C21.1398 40.8665 20.7678 40.5353 20.3623 40.2656L20.1865 40.1543C19.4963 39.7371 18.7296 39.4636 17.9336 39.3496L17.5898 39.3105C17.1742 39.2753 16.7577 39.298 16.3047 39.335L15.8379 39.375C14.489 39.4926 14.0742 39.5115 13.8398 39.4805L13.748 39.4639C13.2756 39.3586 12.8602 39.0858 12.5752 38.7002L12.4609 38.5283C12.3725 38.3784 12.2973 38.168 12.1182 37.4365L11.8994 36.5137C11.7724 35.9644 11.6655 35.4778 11.4961 35.0215L11.4189 34.8271C11.1057 34.0839 10.6464 33.4127 10.0693 32.8525L9.81543 32.6191C9.49974 32.3461 9.14916 32.1193 8.76074 31.8828L8.36035 31.6416C7.20005 30.9439 6.85311 30.7147 6.68164 30.5518L6.61719 30.4844C6.29684 30.1215 6.1202 29.6572 6.11621 29.1777L6.125 28.9717C6.14152 28.7983 6.20401 28.5833 6.48926 27.8857L6.85547 27.0107C7.07562 26.4916 7.27513 26.0353 7.40625 25.5664L7.45801 25.3643C7.64138 24.5789 7.66393 23.7659 7.52637 22.9736L7.45801 22.6357C7.36309 22.2294 7.2133 21.8395 7.03809 21.4199L6.85547 20.9893C6.32686 19.7428 6.18067 19.3537 6.1377 19.1211L6.125 19.0283C6.07919 18.5465 6.20969 18.0669 6.48828 17.6768L6.61719 17.5156C6.73245 17.3851 6.90904 17.2482 7.5498 16.8516L8.36035 16.3584C8.84341 16.0679 9.2727 15.8159 9.6543 15.5137L9.81543 15.3809C10.4256 14.8531 10.9219 14.2084 11.2764 13.4863L11.4189 13.1729C11.5809 12.7885 11.6891 12.3856 11.7939 11.9434L11.8994 11.4863C12.2043 10.1674 12.3151 9.76711 12.417 9.55371L12.4609 9.47168C12.7071 9.05474 13.0949 8.7437 13.5498 8.5918L13.748 8.53613C13.918 8.49827 14.1418 8.49113 14.8936 8.54688L15.8379 8.625C16.3995 8.67396 16.8955 8.72229 17.3818 8.70215L17.5898 8.68945C18.3936 8.62121 19.1746 8.39139 19.8857 8.01562L20.1865 7.8457C20.5434 7.62996 20.8673 7.36736 21.2119 7.07129L21.5654 6.76367C22.588 5.87535 22.9132 5.61753 23.1211 5.50488L23.2041 5.46387Z" stroke="#2A88F1" stroke-width="4"/>
<path d="M14 26L17.7373 29.7373C18.5293 30.5293 18.9253 30.9253 19.382 31.0737C19.7837 31.2042 20.2163 31.2042 20.618 31.0737C21.0747 30.9253 21.4707 30.5293 22.2627 29.7373L33 19" stroke="#2A88F1" stroke-width="4" stroke-linecap="round" stroke-linejoin="round"/>
</svg>
