<svg width="27" height="26" viewBox="0 0 27 26" fill="none" xmlns="http://www.w3.org/2000/svg">
<path d="M22.932 5.37895C22.8856 5.32541 22.8287 5.28192 22.7649 5.25116C22.701 5.2204 22.6315 5.20301 22.5607 5.20007C22.5087 5.20007 17.3701 4.99207 13.9984 2.19551C13.9051 2.11822 13.7878 2.07593 13.6667 2.07593C13.5455 2.07593 13.4282 2.11822 13.3349 2.19551C9.96322 4.99935 4.82666 5.20007 4.77258 5.20007C4.70204 5.20249 4.63273 5.21924 4.56887 5.24931C4.50501 5.27937 4.44794 5.32213 4.40114 5.37496C4.35434 5.4278 4.31878 5.48961 4.29664 5.55663C4.2745 5.62365 4.26623 5.69447 4.27234 5.76479C4.27234 5.76479 4.75386 11.3225 4.95874 13.623C5.16674 15.8892 5.5401 20.1043 13.4431 23.866C13.513 23.8988 13.5894 23.9159 13.6667 23.9159C13.7439 23.9159 13.8203 23.8988 13.8903 23.866C21.7943 20.1043 22.1718 15.8892 22.3746 13.623C22.5826 11.3225 23.061 5.76479 23.061 5.76479C23.0665 5.69511 23.058 5.62503 23.0358 5.55873C23.0136 5.49244 22.9783 5.43129 22.932 5.37895ZM21.3387 13.5357C21.1557 15.573 20.8187 19.3461 13.6667 22.8229C6.51458 19.3461 6.17866 15.573 5.99458 13.5357C5.82818 11.6637 5.47458 7.64927 5.35394 6.20783C8.33701 5.98218 11.2062 4.96631 13.6667 3.26463C16.1271 4.96631 18.9963 5.98218 21.9794 6.20783C21.8546 7.64927 21.5051 11.6668 21.3387 13.5357ZM12.9262 13.9985L15.573 10.8379C15.6615 10.732 15.7885 10.6656 15.926 10.6533C16.0635 10.641 16.2003 10.6838 16.3062 10.7724C16.4121 10.8609 16.4785 10.9879 16.4908 11.1254C16.5031 11.2629 16.4602 11.3997 16.3717 11.5056L13.3089 15.1612C13.2601 15.2198 13.1991 15.2669 13.13 15.2992C13.061 15.3316 12.9858 15.3484 12.9095 15.3484H12.9002C12.8224 15.3468 12.7459 15.3277 12.6764 15.2926C12.6069 15.2575 12.5462 15.2073 12.4987 15.1456L10.9502 13.1384C10.9059 13.0846 10.8728 13.0225 10.853 12.9557C10.8331 12.8889 10.8269 12.8188 10.8347 12.7496C10.8425 12.6804 10.8641 12.6134 10.8983 12.5527C10.9324 12.492 10.9784 12.4387 11.0336 12.3961C11.0887 12.3536 11.1518 12.3225 11.2192 12.3048C11.2866 12.287 11.3569 12.283 11.4258 12.293C11.4948 12.303 11.561 12.3267 11.6206 12.3628C11.6802 12.3988 11.732 12.4465 11.7728 12.5029L12.9262 13.9985Z" fill="white"/>
</svg>
