<svg width="60" height="60" viewBox="0 0 60 60" fill="none" xmlns="http://www.w3.org/2000/svg">
<path d="M18 35V35C18 35.9288 18 36.3933 18.0513 36.7832C18.4058 39.4756 20.5244 41.5942 23.2168 41.9487C23.6067 42 24.0712 42 25 42H35C35.9288 42 36.3933 42 36.7832 41.9487C39.4756 41.5942 41.5942 39.4756 41.9487 36.7832C42 36.3933 42 35.9288 42 35V35" stroke="#2A88F1" stroke-width="4" stroke-linecap="round" stroke-linejoin="round"/>
<path d="M9.4795 38.8877C9 36.9734 9 34.6489 9 30C9 25.3511 9 23.0266 9.4795 21.1123C10.914 15.3855 15.3855 10.914 21.1123 9.4795C23.0266 9 25.3511 9 30 9C34.6489 9 36.9734 9 38.8877 9.4795C44.6145 10.914 49.086 15.3855 50.5205 21.1123C51 23.0266 51 25.3511 51 30C51 34.6489 51 36.9734 50.5205 38.8877C49.086 44.6145 44.6145 49.086 38.8877 50.5205C36.9734 51 34.6489 51 30 51C25.3511 51 23.0266 51 21.1123 50.5205C15.3855 49.086 10.914 44.6145 9.4795 38.8877Z" stroke="#2A88F1" stroke-width="4" stroke-linecap="round" stroke-linejoin="round"/>
<path d="M34 26V26C34 25.6934 34 25.5401 34.0201 25.4119C34.1323 24.6948 34.6948 24.1323 35.4119 24.0201C35.5401 24 35.6934 24 36 24H40C40.3066 24 40.4599 24 40.5881 24.0201C41.3052 24.1323 41.8677 24.6948 41.9799 25.4119C42 25.5401 42 25.6934 42 26V26" stroke="#2A88F1" stroke-width="4" stroke-linecap="round" stroke-linejoin="round"/>
<path d="M18 26V26C18 25.6934 18 25.5401 18.0201 25.4119C18.1323 24.6948 18.6948 24.1323 19.4119 24.0201C19.5401 24 19.6934 24 20 24H24C24.3066 24 24.4599 24 24.5881 24.0201C25.3052 24.1323 25.8677 24.6948 25.9799 25.4119C26 25.5401 26 25.6934 26 26V26" stroke="#2A88F1" stroke-width="4" stroke-linecap="round" stroke-linejoin="round"/>
</svg>
