<svg width="24" height="24" viewBox="0 0 24 24" fill="none" xmlns="http://www.w3.org/2000/svg">
<path d="M8 12L19 12" stroke="#ED5E5E" stroke-width="2" stroke-linecap="round" stroke-linejoin="round"/>
<path d="M17 16V16C18.0905 14.9095 18.6357 14.3643 18.9272 13.7761C19.4818 12.657 19.4818 11.343 18.9272 10.2239C18.6357 9.63575 18.0905 9.0905 17 8V8" stroke="#ED5E5E" stroke-width="2" stroke-linecap="round" stroke-linejoin="round"/>
<path d="M10 20L9.4 20C7.15979 20 6.03969 20 5.18404 19.564C4.43139 19.1805 3.81947 18.5686 3.43597 17.816C3 16.9603 3 15.8402 3 13.6L3 10.4C3 8.15979 3 7.03969 3.43597 6.18404C3.81947 5.43139 4.43139 4.81947 5.18404 4.43597C6.03968 4 7.15979 4 9.4 4L10 4" stroke="#ED5E5E" stroke-width="2" stroke-linecap="round" stroke-linejoin="round"/>
</svg>
