<svg width="49" height="48" viewBox="0 0 49 48" fill="none" xmlns="http://www.w3.org/2000/svg">
<g clip-path="url(#clip0_2628_651)">
<path d="M47.7266 21H44.0476C42.9216 18.638 40.5126 17 37.7266 17H18.7266C17.1196 17 15.6426 17.55 14.4596 18.463C13.8066 16.461 11.9436 15 9.72656 15C8.60156 15 7.56256 15.374 6.72656 16.003V11C6.72656 10.447 6.27856 10 5.72656 10H1.72656C1.17456 10 0.726562 10.447 0.726562 11V37C0.726562 37.553 1.17456 38 1.72656 38H5.72656C6.27856 38 6.72656 37.553 6.72656 37V31H11.7266V32C11.7266 32.553 12.1746 33 12.7266 33H42.7266V37C42.7266 37.553 43.1746 38 43.7266 38H47.7266C48.2786 38 48.7266 37.553 48.7266 37V22C48.7266 21.447 48.2786 21 47.7266 21ZM4.72656 36H2.72656V12H4.72656V36ZM11.7266 29H6.72656V25H11.7266V29ZM12.6726 20.503C12.4296 20.922 12.2266 21.367 12.0736 21.835C11.4986 22.571 10.6546 23 9.72656 23C8.07256 23 6.72656 21.654 6.72656 20C6.72656 18.346 8.07256 17 9.72656 17C11.3806 17 12.7266 18.346 12.7266 20C12.7266 20.162 12.7016 20.332 12.6726 20.503ZM42.7266 31H13.7266V24C13.7266 21.243 15.9696 19 18.7266 19H37.7266C40.4836 19 42.7266 21.243 42.7266 24V31ZM46.7266 36H44.7266V23H46.7266V36Z" fill="#333333"/>
</g>
<defs>
<clipPath id="clip0_2628_651">
<rect width="48" height="48" fill="white" transform="translate(0.726562)"/>
</clipPath>
</defs>
</svg>
