<svg width="27" height="26" viewBox="0 0 27 26" fill="none" xmlns="http://www.w3.org/2000/svg">
<path d="M23.4167 5.68726C23.4179 5.2401 23.2961 4.80121 23.0647 4.41862C22.8332 4.03603 22.5009 3.72449 22.1042 3.5181C21.7076 3.3117 21.2618 3.2184 20.8156 3.24841C20.3694 3.27841 19.9401 3.43057 19.5747 3.68823C19.2092 3.94588 18.9217 4.29911 18.7435 4.70924C18.5653 5.11938 18.5034 5.57062 18.5645 6.01359C18.6257 6.45655 18.8075 6.87417 19.09 7.22073C19.3726 7.5673 19.7451 7.82945 20.1667 7.97851V17.8748C20.1667 19.1677 19.653 20.4077 18.7388 21.3219C17.8246 22.2361 16.5846 22.7498 15.2917 22.7498C13.9987 22.7498 12.7588 22.2361 11.8445 21.3219C10.9303 20.4077 10.4167 19.1677 10.4167 17.8748V16.9973C11.7691 16.802 13.0061 16.1264 13.9013 15.094C14.7965 14.0615 15.2901 12.7413 15.2917 11.3748V2.43726C15.2917 2.22177 15.2061 2.0151 15.0537 1.86273C14.9013 1.71036 14.6946 1.62476 14.4792 1.62476H12.0417C11.8262 1.62476 11.6195 1.71036 11.4671 1.86273C11.3148 2.0151 11.2292 2.22177 11.2292 2.43726C11.2292 2.65274 11.3148 2.85941 11.4671 3.01178C11.6195 3.16415 11.8262 3.24976 12.0417 3.24976H13.6667V11.3748C13.6667 12.4522 13.2386 13.4855 12.4768 14.2474C11.7149 15.0092 10.6816 15.4373 9.60416 15.4373C8.52671 15.4373 7.4934 15.0092 6.73154 14.2474C5.96967 13.4855 5.54166 12.4522 5.54166 11.3748V3.24976H7.16666C7.38214 3.24976 7.58881 3.16415 7.74118 3.01178C7.89355 2.85941 7.97916 2.65274 7.97916 2.43726C7.97916 2.22177 7.89355 2.0151 7.74118 1.86273C7.58881 1.71036 7.38214 1.62476 7.16666 1.62476H4.72916C4.51367 1.62476 4.30701 1.71036 4.15463 1.86273C4.00226 2.0151 3.91666 2.22177 3.91666 2.43726V11.3748C3.91826 12.7413 4.4118 14.0615 5.30699 15.094C6.20218 16.1264 7.43917 16.802 8.79166 16.9973V17.8748C8.79166 19.5987 9.47648 21.252 10.6955 22.471C11.9144 23.6899 13.5677 24.3748 15.2917 24.3748C17.0156 24.3748 18.6689 23.6899 19.8879 22.471C21.1068 21.252 21.7917 19.5987 21.7917 17.8748V7.97851C22.2658 7.81088 22.6765 7.5007 22.9674 7.0905C23.2583 6.68029 23.4152 6.19015 23.4167 5.68726ZM20.9792 6.49976C20.8185 6.49976 20.6614 6.4521 20.5278 6.36282C20.3941 6.27355 20.29 6.14665 20.2285 5.99819C20.167 5.84972 20.1509 5.68635 20.1823 5.52874C20.2136 5.37114 20.291 5.22636 20.4046 5.11273C20.5183 4.9991 20.663 4.92172 20.8206 4.89037C20.9783 4.85902 21.1416 4.87511 21.2901 4.9366C21.4386 4.9981 21.5654 5.10224 21.6547 5.23586C21.744 5.36947 21.7917 5.52656 21.7917 5.68726C21.7917 5.90274 21.7061 6.10941 21.5537 6.26178C21.4013 6.41415 21.1946 6.49976 20.9792 6.49976Z" fill="white"/>
</svg>
