<svg width="27" height="26" viewBox="0 0 27 26" fill="none" xmlns="http://www.w3.org/2000/svg">
<path d="M24.7165 19.0493C24.8396 19.0493 24.9576 19.0981 25.0446 19.1851C25.1317 19.2721 25.1804 19.3901 25.1804 19.5132V21.6968L25.1667 21.9741C25.1024 22.6158 24.8181 23.2192 24.3581 23.6792C23.8983 24.1389 23.2954 24.4225 22.654 24.4868L22.3767 24.5015H9.63644C9.54436 24.5014 9.45515 24.4736 9.37961 24.4233L9.30832 24.3647C9.22164 24.2779 9.1727 24.1603 9.17258 24.0376C9.17258 23.9147 9.22152 23.7965 9.30832 23.7095L9.37961 23.6509C9.45515 23.6006 9.54437 23.5728 9.63644 23.5728H22.3767L22.5622 23.564C22.9914 23.5209 23.3952 23.3306 23.7029 23.0229L23.8269 22.8853C24.1004 22.5515 24.2522 22.132 24.2527 21.6968V19.9771H21.5212C21.4289 19.9771 21.3391 19.9494 21.2634 19.8989L21.1931 19.8413C21.1061 19.7543 21.0564 19.6362 21.0564 19.5132C21.0564 19.3901 21.1061 19.2721 21.1931 19.1851C21.2801 19.0982 21.3982 19.0493 21.5212 19.0493H24.7165ZM19.3239 16.1245C19.447 16.1245 19.5651 16.1733 19.6521 16.2603L19.7107 16.3306C19.7611 16.4062 19.7878 16.4961 19.7878 16.5884C19.7878 16.6804 19.7609 16.7697 19.7107 16.8452L19.6521 16.9165C19.5651 17.0033 19.4469 17.0522 19.3239 17.0522H9.49289C9.36992 17.0522 9.25172 17.0035 9.16476 16.9165C9.07781 16.8295 9.02909 16.7113 9.02902 16.5884C9.02902 16.4654 9.0779 16.3472 9.16476 16.2603C9.25172 16.1733 9.36992 16.1246 9.49289 16.1245H19.3239ZM19.3239 13.1978C19.4468 13.1978 19.5651 13.2467 19.6521 13.3335L19.7107 13.4048C19.7609 13.4803 19.7877 13.5696 19.7878 13.6616C19.7878 13.7538 19.761 13.8438 19.7107 13.9194L19.6521 13.9897C19.5651 14.0768 19.447 14.1265 19.3239 14.1265H9.49289C9.40082 14.1264 9.31159 14.0986 9.23605 14.0483L9.16476 13.9897C9.07797 13.9028 9.02902 13.7845 9.02902 13.6616C9.02914 13.5387 9.07786 13.4204 9.16476 13.3335L9.23605 13.2759C9.31159 13.2256 9.40081 13.1978 9.49289 13.1978H19.3239ZM19.3239 10.2739C19.4469 10.2739 19.5651 10.3229 19.6521 10.4097L19.7107 10.481C19.7609 10.5565 19.7877 10.6458 19.7878 10.7378C19.7878 10.83 19.7611 10.92 19.7107 10.9956L19.6521 11.0659C19.5651 11.1529 19.447 11.2017 19.3239 11.2017H9.49289C9.36992 11.2016 9.25172 11.1529 9.16476 11.0659C9.07793 10.9789 9.02902 10.8607 9.02902 10.7378C9.02911 10.6149 9.07782 10.4966 9.16476 10.4097C9.25172 10.3227 9.36994 10.274 9.49289 10.2739H19.3239ZM19.3239 7.34814C19.447 7.34814 19.5651 7.39785 19.6521 7.48486L19.7107 7.55518C19.761 7.63081 19.7878 7.72076 19.7878 7.81299C19.7877 7.90502 19.7609 7.99432 19.7107 8.06982L19.6521 8.14111C19.5651 8.22791 19.4468 8.27686 19.3239 8.27686H9.49289C9.40079 8.27681 9.3116 8.24903 9.23605 8.19873L9.16476 8.14111C9.07784 8.05419 9.02912 7.93591 9.02902 7.81299C9.02902 7.69008 9.07795 7.57185 9.16476 7.48486C9.25172 7.3979 9.36992 7.34821 9.49289 7.34814H19.3239ZM4.95676 1.49951C5.70039 1.49954 6.41335 1.79497 6.93918 2.3208L7.1257 2.52588C7.53457 3.02485 7.76047 3.65248 7.76047 4.30322V7.16357C7.76035 7.28647 7.71164 7.40479 7.62473 7.4917C7.53773 7.57856 7.41954 7.62744 7.2966 7.62744H2.61691C2.52461 7.62744 2.43478 7.59978 2.3591 7.54932L2.28879 7.4917C2.20188 7.40479 2.15317 7.28647 2.15305 7.16357V4.30322C2.15305 3.55956 2.44848 2.84665 2.97433 2.3208L3.17941 2.13428C3.6784 1.72536 4.30597 1.49951 4.95676 1.49951ZM4.95676 2.42725C4.45921 2.42725 3.9824 2.62523 3.63058 2.97705C3.27877 3.32887 3.08078 3.80568 3.08078 4.30322V6.69873H6.83273V4.30322C6.83273 3.86779 6.68155 3.44763 6.40793 3.11377L6.28293 2.97705C5.93113 2.62526 5.45427 2.42727 4.95676 2.42725ZM17.7458 4.42432C17.8689 4.42432 17.9869 4.47305 18.0739 4.56006L18.1316 4.63037C18.1822 4.70612 18.2097 4.79575 18.2097 4.88818C18.2097 4.98063 18.1822 5.07025 18.1316 5.146L18.0739 5.21631C17.9869 5.30331 17.8689 5.35204 17.7458 5.35205H11.072C10.9797 5.35205 10.8899 5.32443 10.8142 5.27393L10.7439 5.21631C10.6569 5.12931 10.6072 5.01122 10.6071 4.88818C10.6071 4.76512 10.6568 4.64708 10.7439 4.56006L10.8142 4.50244C10.8899 4.45191 10.9796 4.42432 11.072 4.42432H17.7458Z" fill="white" stroke="white" stroke-width="0.2"/>
<path d="M19.1805 1.49951L19.4579 1.51318C20.0995 1.57749 20.703 1.86088 21.163 2.3208L21.3485 2.52686C21.7573 3.02561 21.9836 3.65269 21.9843 4.30322V19.5132C21.9842 19.6055 21.9576 19.6953 21.9071 19.771L21.8485 19.8413C21.7615 19.9282 21.6433 19.9771 21.5204 19.9771H12.4403V21.6968L12.4266 21.9741C12.3715 22.5241 12.1549 23.0456 11.8046 23.4731L11.619 23.6792C11.1591 24.1391 10.5555 24.4225 9.91394 24.4868L9.6366 24.5015C8.98599 24.5008 8.35902 24.2737 7.86023 23.8647L7.65515 23.6792C7.12949 23.1535 6.83367 22.4402 6.83289 21.6968V7.12451C6.83289 7.00152 6.8817 6.88339 6.96863 6.79639C7.05564 6.70937 7.17369 6.65967 7.29675 6.65967C7.41978 6.65969 7.53788 6.70939 7.62488 6.79639L7.6825 6.8667C7.73299 6.94239 7.76062 7.03218 7.76062 7.12451V21.6968C7.76062 22.1943 7.95861 22.6721 8.31042 23.0239L8.44812 23.1479C8.78192 23.4214 9.2013 23.5727 9.6366 23.5728C10.134 23.5728 10.611 23.3755 10.9628 23.0239L11.0878 22.8862C11.3614 22.5524 11.5126 22.1322 11.5126 21.6968V19.5132C11.5126 19.3902 11.5614 19.2721 11.6483 19.1851L11.7196 19.1274C11.7952 19.0771 11.8843 19.0494 11.9764 19.0493H21.0565V4.30322L21.0477 4.11768C21.0108 3.74984 20.866 3.4007 20.6317 3.11475L20.5067 2.97705C20.199 2.66933 19.7954 2.47907 19.3661 2.43604L19.1805 2.42725H4.95691C4.86457 2.42725 4.77479 2.39963 4.6991 2.34912L4.62878 2.2915C4.54183 2.20455 4.49311 2.08635 4.49304 1.96338C4.49304 1.84032 4.54177 1.72227 4.62878 1.63525L4.6991 1.57666C4.77475 1.52625 4.86466 1.49951 4.95691 1.49951H19.1805Z" fill="white" stroke="white" stroke-width="0.2"/>
</svg>
