<svg width="60" height="60" viewBox="0 0 60 60" fill="none" xmlns="http://www.w3.org/2000/svg">
<path d="M30 42.5L30 10" stroke="#7D8A95" stroke-width="4" stroke-linecap="round" stroke-linejoin="round"/>
<path d="M20 15L25.4745 9.52549C27.0586 7.94142 27.8506 7.14938 28.7639 6.85263C29.5673 6.5916 30.4327 6.5916 31.2361 6.85263C32.1494 7.14938 32.9414 7.94142 34.5255 9.52548L40 15" stroke="#7D8A95" stroke-width="4" stroke-linecap="round" stroke-linejoin="round"/>
<path d="M7.5 32.5V46.1C7.5 48.3402 7.5 49.4603 7.93597 50.316C8.31947 51.0686 8.93139 51.6805 9.68404 52.064C10.5397 52.5 11.6598 52.5 13.9 52.5H46.1C48.3402 52.5 49.4603 52.5 50.316 52.064C51.0686 51.6805 51.6805 51.0686 52.064 50.316C52.5 49.4603 52.5 48.3402 52.5 46.1V32.5" stroke="#7D8A95" stroke-width="4" stroke-linecap="round" stroke-linejoin="round"/>
</svg>
