<svg width="18" height="17" viewBox="0 0 18 17" fill="none" xmlns="http://www.w3.org/2000/svg">
<g clip-path="url(#clip0_3581_595)">
<path d="M16.1454 9.92897C15.89 9.57637 15.7524 9.15209 15.7524 8.71669C15.7524 8.28129 15.89 7.85701 16.1454 7.50441L16.6689 6.78117C16.7329 6.69286 16.775 6.5906 16.7918 6.48283C16.8085 6.37505 16.7995 6.26484 16.7653 6.16125C16.7308 6.05876 16.6731 5.96563 16.5966 5.88915C16.5201 5.81268 16.427 5.75493 16.3245 5.72043L15.4773 5.44491C15.0622 5.31103 14.7005 5.04874 14.4442 4.69591C14.1879 4.34307 14.0504 3.91792 14.0515 3.48184V2.5864C14.0514 2.47768 14.0256 2.37053 13.9761 2.2737C13.9267 2.17688 13.855 2.09313 13.767 2.0293C13.679 1.96548 13.5772 1.92339 13.4698 1.90649C13.3624 1.88958 13.2525 1.89834 13.1491 1.93204L12.295 2.20756C11.8804 2.34174 11.4339 2.34138 11.0195 2.20654C10.6051 2.07169 10.2439 1.80926 9.98756 1.45677L9.46407 0.733538C9.39723 0.649718 9.31237 0.582034 9.21578 0.535517C9.11919 0.489 9.01336 0.464844 8.90615 0.464844C8.79894 0.464844 8.69311 0.489 8.59652 0.535517C8.49993 0.582034 8.41506 0.649718 8.34822 0.733538L7.82474 1.45677C7.56843 1.80926 7.20725 2.07169 6.79281 2.20654C6.37838 2.34138 5.93192 2.34174 5.51727 2.20756L4.66316 1.93204C4.5598 1.89834 4.44993 1.88958 4.34254 1.90649C4.23514 1.92339 4.13327 1.96548 4.04526 2.0293C3.95725 2.09313 3.8856 2.17688 3.83617 2.2737C3.78673 2.37053 3.76092 2.47768 3.76084 2.5864V3.48184C3.7619 3.91792 3.62436 4.34307 3.36809 4.69591C3.11182 5.04874 2.75006 5.31103 2.33503 5.44491L1.48781 5.72043C1.38531 5.75493 1.29218 5.81268 1.21571 5.88915C1.13923 5.96563 1.08149 6.05876 1.04698 6.16125C1.01282 6.26484 1.00376 6.37505 1.02052 6.48283C1.03729 6.5906 1.0794 6.69286 1.14341 6.78117L1.6669 7.50441C1.92233 7.85701 2.05987 8.28129 2.05987 8.71669C2.05987 9.15209 1.92233 9.57637 1.6669 9.92897L1.14341 10.6522C1.0794 10.7405 1.03729 10.8428 1.02052 10.9506C1.00376 11.0583 1.01282 11.1685 1.04698 11.2721C1.08149 11.3746 1.13923 11.4678 1.21571 11.5442C1.29218 11.6207 1.38531 11.6784 1.48781 11.713L2.33503 11.9885C2.75006 12.1223 3.11182 12.3846 3.36809 12.7375C3.62436 13.0903 3.7619 13.5155 3.76084 13.9515V14.847C3.76092 14.9557 3.78673 15.0628 3.83617 15.1597C3.8856 15.2565 3.95725 15.3403 4.04526 15.4041C4.13327 15.4679 4.23514 15.51 4.34254 15.5269C4.44993 15.5438 4.5598 15.535 4.66316 15.5013L5.51038 15.2258C5.92591 15.0894 6.37406 15.0886 6.79008 15.2235C7.20609 15.3585 7.56843 15.6222 7.82474 15.9766L8.34822 16.6998C8.41253 16.7874 8.49655 16.8586 8.59347 16.9077C8.6904 16.9567 8.79751 16.9823 8.90615 16.9823C9.01479 16.9823 9.1219 16.9567 9.21882 16.9077C9.31575 16.8586 9.39976 16.7874 9.46407 16.6998L9.98756 15.9766C10.2443 15.6227 10.6067 15.3594 11.0225 15.2245C11.4384 15.0896 11.8863 15.09 12.3019 15.2258L13.1491 15.5013C13.2525 15.535 13.3624 15.5438 13.4698 15.5269C13.5772 15.51 13.679 15.4679 13.767 15.4041C13.855 15.3403 13.9267 15.2565 13.9761 15.1597C14.0256 15.0628 14.0514 14.9557 14.0515 14.847V13.9515C14.0504 13.5155 14.1879 13.0903 14.4442 12.7375C14.7005 12.3846 15.0622 12.1223 15.4773 11.9885L16.3245 11.713C16.427 11.6784 16.5201 11.6207 16.5966 11.5442C16.6731 11.4678 16.7308 11.3746 16.7653 11.2721C16.7995 11.1685 16.8085 11.0583 16.7918 10.9506C16.775 10.8428 16.7329 10.7405 16.6689 10.6522L16.1454 9.92897ZM12.1504 7.82608L8.7064 11.2701C8.57723 11.3992 8.40206 11.4717 8.21942 11.4717C8.03677 11.4717 7.86161 11.3992 7.73244 11.2701L5.66605 9.20367C5.60026 9.14013 5.54779 9.06413 5.51169 8.98009C5.47559 8.89605 5.45659 8.80567 5.45579 8.71421C5.455 8.62275 5.47243 8.53205 5.50706 8.4474C5.54169 8.36275 5.59284 8.28585 5.65751 8.22117C5.72219 8.1565 5.79909 8.10536 5.88374 8.07072C5.96839 8.03609 6.05909 8.01866 6.15055 8.01946C6.24201 8.02025 6.33239 8.03925 6.41643 8.07535C6.50046 8.11145 6.57647 8.16392 6.64001 8.22971L8.21735 9.80912L11.1744 6.85212C11.3043 6.72665 11.4783 6.65722 11.6589 6.65879C11.8395 6.66036 12.0122 6.7328 12.1399 6.86051C12.2676 6.98822 12.3401 7.16098 12.3416 7.34158C12.3432 7.52218 12.2738 7.69617 12.1483 7.82608H12.1504Z" fill="#1FC16B"/>
</g>
<defs>
<clipPath id="clip0_3581_595">
<rect width="16.5311" height="16.5311" fill="white" transform="translate(0.640694 0.451172)"/>
</clipPath>
</defs>
</svg>
