<svg width="28" height="28" viewBox="0 0 28 28" fill="none" xmlns="http://www.w3.org/2000/svg">
<path fill-rule="evenodd" clip-rule="evenodd" d="M8.16667 7H14C16.5773 7 18.6667 9.08934 18.6667 11.6667V11.8125L20.93 10.3973C21.6493 9.94777 22.5559 9.92397 23.2978 10.3352C24.0397 10.7464 24.5 11.5278 24.5 12.376V15.624C24.5017 16.4731 24.0421 17.256 23.2998 17.6684C22.5576 18.0807 21.65 18.0573 20.93 17.6073L18.6667 16.1875V16.3333C18.6667 18.9107 16.5773 21 14 21H8.16667C5.58934 21 3.5 18.9107 3.5 16.3333V11.6667C3.5 9.08934 5.58934 7 8.16667 7Z" stroke="#33384B" stroke-width="2" stroke-linecap="round" stroke-linejoin="round"/>
<path d="M18.6667 11.8125V16.1875" stroke="#33384B" stroke-width="2" stroke-linecap="round"/>
</svg>
