<svg width="28" height="28" viewBox="0 0 28 28" fill="none" xmlns="http://www.w3.org/2000/svg">
<path fill-rule="evenodd" clip-rule="evenodd" d="M6.84071 7.42229C7.86738 6.34079 8.23021 6.03745 8.66771 5.89629C8.97048 5.81695 9.28802 5.81255 9.59288 5.88345C9.99421 6.00012 10.1004 6.08879 11.4164 7.40012C12.5725 8.55162 12.688 8.67645 12.7989 8.90162C13.0108 9.29686 13.0439 9.76377 12.8899 10.185C12.7732 10.5058 12.6075 10.7181 11.9064 11.4216L11.449 11.8801C11.3289 12.0022 11.3007 12.1875 11.379 12.3398C12.3951 14.0733 13.8367 15.5189 15.5674 16.5398C15.7666 16.6464 16.0119 16.612 16.174 16.4546L16.6139 16.0218C16.8857 15.7431 17.1736 15.4806 17.476 15.2355C17.9511 14.9438 18.5429 14.9178 19.0417 15.1666C19.2855 15.2833 19.366 15.3556 20.5584 16.5456C21.788 17.7718 21.823 17.8103 21.9584 18.0915C22.213 18.5569 22.2104 19.1206 21.9514 19.5836C21.8195 19.845 21.739 19.9395 21.0472 20.6465C20.6295 21.0735 20.2364 21.4631 20.1734 21.5203C19.6027 21.9928 18.8704 22.2246 18.1317 22.1666C16.7802 22.0434 15.472 21.6257 14.2992 20.9428C11.7012 19.5663 9.48951 17.5608 7.86621 15.1095C7.51264 14.5964 7.19831 14.0575 6.92588 13.4971C6.19506 12.2446 5.81766 10.8172 5.83388 9.36712C5.88967 8.60851 6.25347 7.90577 6.84071 7.42229Z" stroke="#33384B" stroke-width="2" stroke-linecap="round" stroke-linejoin="round"/>
</svg>
